<svg xmlns="http://www.w3.org/2000/svg" width="86.731" height="102.793" viewBox="0 0 86.731 102.793"><g transform="translate(-40 0)"><path d="M124.256,16.645,84.905.307a4.015,4.015,0,0,0-3.079,0L42.476,16.645A4.016,4.016,0,0,0,40,20.353V40.214a67.243,67.243,0,0,0,41.848,62.281,4.016,4.016,0,0,0,3.035,0,67.244,67.244,0,0,0,41.848-62.281V20.353A4.015,4.015,0,0,0,124.256,16.645ZM118.7,40.214a59.226,59.226,0,0,1-35.335,54.2,59.228,59.228,0,0,1-35.335-54.2V23.034L83.366,8.363,118.7,23.034ZM78.927,53.749,96.186,36.49a4.015,4.015,0,1,1,5.678,5.678l-20.1,20.1a4.015,4.015,0,0,1-5.678,0L64.867,51.045a4.015,4.015,0,1,1,5.678-5.678Z" fill="#deb83d"/></g></svg>