<svg xmlns="http://www.w3.org/2000/svg" width="100.742" height="67.162" viewBox="0 0 100.742 67.162"><g transform="translate(0 -85.333)"><g transform="translate(0 85.333)"><path d="M99.847,89.91a2.083,2.083,0,0,0-1.92-.252L80.816,95.88a8.333,8.333,0,0,0-4.755,4.374,8.433,8.433,0,0,0-.41,1.182,77.564,77.564,0,0,1-13.825-5.376c-8.2-4.225-14.464-2.138-19.837,1.96-2.722.054-6.475.375-10.163.7-2.353.208-4.576.4-6.38.509a8.4,8.4,0,0,0-5.52-7.547L2.816,85.46A2.1,2.1,0,0,0,0,87.432v41.976a2.1,2.1,0,0,0,2.1,2.1h6.13a8.441,8.441,0,0,0,6.6-3.215c.835.635,1.825,1.379,2.862,2.158,2.449,1.843,5.13,3.853,6.307,4.839,7.815,6.542,17.211,13.607,19.082,14.837a15.4,15.4,0,0,0,7.29,2.369,7.705,7.705,0,0,0,4.952-1.4,6.744,6.744,0,0,0,5.259-.117,7.868,7.868,0,0,0,3.892-3.894,8.17,8.17,0,0,0,5.231-.767,7.155,7.155,0,0,0,3.41-3.433A6.6,6.6,0,0,0,77.7,141.42a6.8,6.8,0,0,0,2.75-6.225l5.324-2.945a8.408,8.408,0,0,0,6.739,3.454h6.13a2.1,2.1,0,0,0,2.1-2.1V91.629A2.1,2.1,0,0,0,99.847,89.91ZM12.16,124.585a4.218,4.218,0,0,1-3.931,2.724H4.2V90.428l14.294,5.2a4.2,4.2,0,0,1,2.5,5.417Zm62.993,13.5c-.711.545-1.707.849-2.15.406-.023-.023-.058-.02-.081-.042-.04-.037-.06-.087-.1-.122-1.5-1.185-8.223-8.063-12.378-12.4a2.1,2.1,0,0,0-3.029,2.9c.975,1.018,8.8,9.171,11.936,12.022a2.9,2.9,0,0,1-1.522,1.708,3.234,3.234,0,0,1-3.271.074c-.016-.015-.039-.014-.055-.028s-.037-.055-.064-.077c-2.517-2.011-8.832-8.721-10.26-10.275a2.1,2.1,0,1,0-3.091,2.841c.069.075,6.257,6.75,9.733,9.851a3.689,3.689,0,0,1-1.93,2.188,2.74,2.74,0,0,1-2.867-.427c-3.014-2.556-9.063-8.994-10.252-10.267a2.1,2.1,0,0,0-3.066,2.865c1.41,1.51,5.579,5.928,8.748,8.92a9.074,9.074,0,0,1-1.079.068,11.536,11.536,0,0,1-4.985-1.681c-1.472-.967-10.711-7.862-18.69-14.544-1.207-1.013-3.962-3.085-6.483-4.978-1.351-1.014-2.6-1.95-3.514-2.655l7.858-20.958c2.04-.089,4.759-.324,7.637-.578,1.628-.143,3.257-.283,4.815-.4-2.393,2.457-5.952,6.858-5.483,10.982A6.049,6.049,0,0,0,34.5,118c3.429,2.146,9.777.346,12.835-3.415a14.591,14.591,0,0,0,4.763-1.511c2.46,2.312,5.757,5.03,9.221,7.885,6.03,4.968,12.865,10.6,14.673,13.759A2.529,2.529,0,0,1,75.153,138.086Zm3.6-6.75c-2.8-3.741-8.858-8.746-14.765-13.613-3.937-3.245-7.655-6.309-10.035-8.688a2.109,2.109,0,0,0-2.474-.367,12.13,12.13,0,0,1-5.515,1.861,2.1,2.1,0,0,0-1.566.969c-1.646,2.611-6.221,3.853-7.672,2.947A1.864,1.864,0,0,1,35.7,113c-.2-1.785,1.6-4.876,4.6-7.877,7.426-7.426,12.734-8.879,19.6-5.337a81.426,81.426,0,0,0,15.669,5.985,8.42,8.42,0,0,0,.25.94l8.149,21.733Zm17.791.17H92.513a4.218,4.218,0,0,1-3.931-2.724l-8.828-23.54a4.2,4.2,0,0,1,2.5-5.419l14.294-5.2v36.881Z" transform="translate(0 -85.333)" fill="#deb83d"/></g></g></svg>