<svg xmlns="http://www.w3.org/2000/svg" width="105.498" height="96.976" viewBox="0 0 105.498 96.976"><g transform="translate(-11.252 -15.513)"><path d="M41.581,84.364H33.162l7.521-6.345a1.754,1.754,0,0,0,.622-1.338V54.319a9.8,9.8,0,0,0-8.037-9.63V41.148L40.21,28.732a16.875,16.875,0,0,0,2.143-8.22v-1.7a3.3,3.3,0,0,0-5.654-2.3L19.97,33.665a25.219,25.219,0,0,0-6.995,14.908c0,.034-.006.069-.008.1L11.252,86.034v24.705a1.75,1.75,0,1,0,3.5,0V97.881H39.831v12.858a1.75,1.75,0,1,0,3.5,0V86.114a1.75,1.75,0,0,0-1.75-1.75Zm-19.1-48.256,16.377-16.8v1.2a13.373,13.373,0,0,1-1.7,6.512L29.991,39.838a1.755,1.755,0,0,0-.223.854v5.379L25.1,65.079a1.748,1.748,0,0,0,1.282,2.116,1.727,1.727,0,0,0,.419.051,1.75,1.75,0,0,0,1.7-1.333l4.354-17.734a6.3,6.3,0,0,1,4.95,6.14V75.867l-10.071,8.5h-12.9l1.629-35.475a21.71,21.71,0,0,1,6.013-12.784ZM14.75,94.381V87.864H39.831v6.517Z" fill="#deb83d"/><path d="M116.746,86.074v-.04l-1.715-37.358a.41.41,0,0,0-.008-.1,25.219,25.219,0,0,0-7-14.908L91.3,16.508a3.295,3.295,0,0,0-5.654,2.3v1.7a16.881,16.881,0,0,0,2.143,8.221l6.942,12.415v3.541a9.8,9.8,0,0,0-8.037,9.63V76.681a1.754,1.754,0,0,0,.622,1.338l7.521,6.345H86.419a1.75,1.75,0,0,0-1.75,1.75v24.625a1.75,1.75,0,1,0,3.5,0V97.881H113.25v12.858a1.75,1.75,0,1,0,3.5,0V86.114c0-.014,0-.027,0-.04ZM90.2,75.867V54.319a6.3,6.3,0,0,1,4.95-6.14L99.5,65.913a1.75,1.75,0,0,0,1.7,1.333,1.728,1.728,0,0,0,.419-.051,1.748,1.748,0,0,0,1.282-2.116L98.232,46.071V40.692a1.755,1.755,0,0,0-.223-.854L90.844,27.025a13.379,13.379,0,0,1-1.7-6.513v-1.2l16.377,16.8a21.71,21.71,0,0,1,6.015,12.781l1.629,35.475h-12.9ZM88.169,94.381V87.864H113.25v6.517Z" fill="#deb83d"/><path d="M64,19.068A21.633,21.633,0,1,0,85.632,40.7,21.633,21.633,0,0,0,64,19.068Zm0,39.765A18.133,18.133,0,1,1,82.132,40.7,18.133,18.133,0,0,1,64,58.833Z" fill="#deb83d"/><path d="M67.493,35.471a1.75,1.75,0,0,0,3.5,0,6.987,6.987,0,0,0-5.245-6.753V26.549a1.75,1.75,0,0,0-3.5,0v2.177a6.969,6.969,0,0,0,0,13.49v6.7a3.466,3.466,0,0,1-1.715-2.981,1.75,1.75,0,1,0-3.5,0,6.984,6.984,0,0,0,5.215,6.744v2.179a1.75,1.75,0,1,0,3.5,0V52.683a6.969,6.969,0,0,0,0-13.5V32.472A3.47,3.47,0,0,1,67.493,35.471Zm-6.96,0a3.468,3.468,0,0,1,1.715-2.982v5.964a3.468,3.468,0,0,1-1.715-2.982Zm6.96,10.46a3.469,3.469,0,0,1-1.745,3v-6a3.47,3.47,0,0,1,1.745,3Z" fill="#deb83d"/></g></svg>