<svg xmlns="http://www.w3.org/2000/svg" width="100.041" height="96.811" viewBox="0 0 100.041 96.811"><g transform="translate(0 -8.2)"><g transform="translate(10.162 8.2)"><g transform="translate(0 0)"><path d="M115.661,8.2v3.23h5.79L88.229,44.652,72.1,28.5,51.6,49l2.265,2.284L72.1,33.072,88.229,49.2l35.507-35.487v5.77h3.23V8.2Z" transform="translate(-51.6 -8.2)" fill="#2b233a"/></g></g><g transform="translate(0 30.788)"><path d="M96.811,193.893h0V122.9H80.682v70.993h-3.23v-61.3H61.324v61.324h-3.23V155.177H41.946v38.717h-3.23V145.488H22.588v48.406h-3.23V171.306H3.23v22.588H0v3.23H100.041v-3.23h-3.23Zm-80.663,0H6.459V174.535h9.689Zm19.358,0H25.818V148.718h9.689Zm19.358.02H45.176V158.407h9.689Zm19.358,0H64.534V135.819h9.689Zm19.378-.02H83.912V126.13H93.6Z" transform="translate(0 -122.9)" fill="#2b233a"/></g></g></svg>