<svg xmlns="http://www.w3.org/2000/svg" width="103.587" height="85.552" viewBox="0 0 103.587 85.552"><path d="M103.587,87.556A24.04,24.04,0,0,0,66.34,67.462,74.988,74.988,0,0,0,62.355,54.93C57.986,44.658,52.264,39,46.244,39S34.5,44.634,30.134,54.865A73.792,73.792,0,0,0,26.319,66.66L20.282,44.525a1.85,1.85,0,0,0-3.569,0L.065,105.568A1.85,1.85,0,0,0,1.85,107.9h14.8v14.8a1.85,1.85,0,1,0,3.7,0V107.9h14.8a1.845,1.845,0,0,0,1.838-2.023,22.054,22.054,0,0,0,7.41,1.946V122.7a1.85,1.85,0,1,0,3.7,0V107.826a22.133,22.133,0,0,0,12.629-5.3,24.042,24.042,0,0,0,16.967,9V122.7a1.85,1.85,0,1,0,3.7,0V111.533A24.079,24.079,0,0,0,103.587,87.556ZM32.724,104.2H20.348v-2.933L23.621,98A1.85,1.85,0,0,0,21,95.382l-.657.657V83.857a1.85,1.85,0,1,0-3.7,0V92.34l-2.392-2.392a1.85,1.85,0,1,0-2.616,2.616l5.008,5.008V104.2H4.272L18.5,52.042l6.267,22.979a79.773,79.773,0,0,0-.747,10.656,22.2,22.2,0,0,0,8.394,17.385Zm15.37-2.933,6.857-6.857A1.85,1.85,0,0,0,52.335,91.8l-4.241,4.241V88.323L53.1,83.315A1.85,1.85,0,0,0,50.486,80.7L48.094,83.09V78.308a1.85,1.85,0,1,0-3.7,0V92.339L40.153,88.1a1.85,1.85,0,0,0-2.616,2.616l6.857,6.858v6.54A18.552,18.552,0,0,1,27.718,85.678a78.774,78.774,0,0,1,5.82-29.361C37.227,47.663,41.858,42.7,46.244,42.7s9.009,4.986,12.706,13.679a78.775,78.775,0,0,1,5.821,29.3,18.552,18.552,0,0,1-16.677,18.434Zm33.3,6.548v-2.848l6.857-6.857A1.85,1.85,0,0,0,85.631,95.5L81.39,99.738V87.556a1.85,1.85,0,0,0-3.7,0v8.483L73.449,91.8a1.85,1.85,0,0,0-2.616,2.616l6.857,6.857v6.548a20.349,20.349,0,0,1-14.351-7.954A22.125,22.125,0,0,0,68.47,85.678a81.521,81.521,0,0,0-1.323-14.256,20.346,20.346,0,1,1,14.243,36.4Z" transform="translate(0 -39)" fill="#deb83d"/></svg>