<svg xmlns="http://www.w3.org/2000/svg" width="131.077" height="102.017" viewBox="0 0 131.077 102.017"><g transform="translate(0 -56.755)"><path d="M129.021,154.932h-8.6v-6.856a10.775,10.775,0,0,0,6.162-1.519c2.449-1.7,3.59-4.849,3.59-9.9a35.422,35.422,0,0,0-4.551-16.756,18.923,18.923,0,0,0,5.454-13.362,19.178,19.178,0,0,0-16.339-18.908,15.442,15.442,0,0,0-6.308-6.694A19.11,19.11,0,0,0,82.157,65.454c-1.984-3.644-4.047-5.435-6.24-5.435-2.224,0-4.283,1.812-6.292,5.541A60.544,60.544,0,0,0,65.089,77.7c-.943,3.426-1.76,7.106-2.436,10.891A22.312,22.312,0,0,0,47.92,85.813V71.293A15.386,15.386,0,0,0,37.813,56.871,1.92,1.92,0,1,0,36.5,60.48,11.535,11.535,0,0,1,44.08,71.292V86.778A22.342,22.342,0,0,0,34.5,93.283V90.148l3.69-3.69a1.92,1.92,0,0,0-2.715-2.715l-.975.975v-11.7a1.92,1.92,0,1,0-3.84,0v2.871l-1.936-1.936a1.92,1.92,0,1,0-2.715,2.715l4.652,4.652v14.89c-2.8-4.036-6.093-7.007-9.579-7.37V71.293a11.541,11.541,0,0,1,7.54-10.8A1.92,1.92,0,0,0,27.3,56.887,15.4,15.4,0,0,0,17.241,71.293v18.22c-3.7,1.662-7.492,6.162-10.75,12.9A65.241,65.241,0,0,0,.136,129.421c0,8.891,1.912,14.361,6.016,17.212,3.369,2.341,7.681,2.552,12.293,2.569v5.729H1.92a1.92,1.92,0,1,0,0,3.84h127.1a1.92,1.92,0,0,0,0-3.84Zm-92.542-9.979a30.331,30.331,0,0,0,4.2.268v9.711H34.5v-8.238a10.865,10.865,0,0,0,1.979-1.741Zm8.045.268a26.656,26.656,0,0,0,4.948-.4v10.107H44.524Zm20.213-11.513A9.4,9.4,0,0,0,71.1,137.1a15.3,15.3,0,0,1-14.137,1.147,25.286,25.286,0,0,0,1.1-8.142c0-.326-.007-.655-.016-.984a22.093,22.093,0,0,0,3.837-1.61A15.855,15.855,0,0,0,64.737,133.708Zm-11.343,9.528a8.554,8.554,0,0,0,1.731-1.6,18.868,18.868,0,0,0,7.236,1.656v11.639H53.312ZM66.2,143.02a18.819,18.819,0,0,0,7.8-3.245v15.157H66.2ZM77.836,137.3a18.437,18.437,0,0,0,4.414-.492v18.129H77.836Zm12.444-2.473v20.11H86.09V134.764a9.7,9.7,0,0,0,1.006-1.056,11.438,11.438,0,0,0,1.063-1.553,16.124,16.124,0,0,0,2.122,2.667Zm3.84,2.58a15.3,15.3,0,0,0,4.891,1.471v16.058H94.121Zm8.731,1.47a15.3,15.3,0,0,0,4-1.066c.166,4.384,1.31,7.183,3.566,8.75a10.756,10.756,0,0,0,6.162,1.523v6.852H102.852V138.873Zm21.541,4.531a7.443,7.443,0,0,1-3.971.835v-3.48c.036-.031.071-.061.105-.095l3.049-3.049a1.92,1.92,0,0,0-2.715-2.715l-.439.439v-5.48a1.92,1.92,0,0,0-3.84,0v14.381a7.434,7.434,0,0,1-3.971-.835c-1.306-.908-1.941-3.116-1.941-6.751a31.668,31.668,0,0,1,3.091-13.1c1.97-4.073,3.954-5.591,4.741-5.591s2.771,1.518,4.741,5.591a31.664,31.664,0,0,1,3.091,13.1c0,3.635-.635,5.843-1.941,6.751Zm2.844-36.869a15.112,15.112,0,0,1-3.911,10.2c-1.5-1.632-3.151-2.617-4.824-2.617a4.952,4.952,0,0,0-2.23.566V94.306a15.367,15.367,0,0,0-.2-2.484A15.34,15.34,0,0,1,127.237,106.534ZM89.688,91.625a12.088,12.088,0,0,1,11.244-8.818,11.512,11.512,0,0,1,11.5,11.5v23.968a34.134,34.134,0,0,0-5.414,15.142l-.028.015a11.432,11.432,0,0,1-4.137,1.556V123.726l3.69-3.69a1.92,1.92,0,0,0-2.715-2.715l-.974.974v-11.7a1.92,1.92,0,0,0-3.84,0v2.871l-1.936-1.936a1.92,1.92,0,0,0-2.715,2.715l4.652,4.652v20.1a11.485,11.485,0,0,1-8.986-7.682c0-.01-.008-.019-.011-.029a64.952,64.952,0,0,0,1.353-15.091A135.924,135.924,0,0,0,89.688,91.625ZM75.916,63.859c.448,0,2.687,1.61,5.456,9.489A1.92,1.92,0,1,0,85,72.074q-.6-1.7-1.2-3.145a15.287,15.287,0,0,1,20.45,10.4,15.316,15.316,0,0,0-15.7,5.935c-.29-1.414-.6-2.809-.927-4.175a1.92,1.92,0,1,0-3.733.9,134.635,134.635,0,0,1,3.644,30.2c0,10.047-1.113,16.289-3.4,19.083-1.473,1.8-3.349,2.124-6.289,2.178v-9.829l6.229-6.229a1.92,1.92,0,0,0-2.715-2.715l-3.513,3.513v-16a1.92,1.92,0,1,0-3.84,0V106.2l-2.731-2.731a1.92,1.92,0,0,0-2.715,2.715l5.44,5.44.006.005v21.818c-2.939-.054-4.816-.38-6.289-2.178-2.289-2.795-3.4-9.037-3.4-19.083A133.593,133.593,0,0,1,68.791,78.72c3.363-12.216,6.523-14.861,7.125-14.861ZM51.392,89.382A18.285,18.285,0,0,1,61.977,92.72a135.261,135.261,0,0,0-1.512,19.472,83.348,83.348,0,0,0,.644,11.335,18.285,18.285,0,0,1-3.359,1.638,49.053,49.053,0,0,0-4.438-15.23v-4.655l4.046-4.046a1.92,1.92,0,1,0-2.715-2.715l-1.331,1.331V97.631a1.92,1.92,0,0,0-3.84,0v6.123c-2.235-2.7-4.606-4.174-6.868-4.174-2.718,0-5.254,1.993-7.427,4.874-.388-.888-.8-1.77-1.234-2.64a18.461,18.461,0,0,1,17.45-12.433ZM8.343,143.48c-1.875-1.3-4.368-4.177-4.368-14.059a61.216,61.216,0,0,1,5.972-25.337c3.363-6.955,7.453-11.449,10.418-11.449,3.1,0,8.313,5.429,12.3,15.8a46.016,46.016,0,0,0-2.994,7,1.92,1.92,0,0,0,3.642,1.218c2.735-8.175,6.953-13.235,9.293-13.235,1.586,0,4.531,2.559,7.248,8.178A44.716,44.716,0,0,1,54.215,130.1c0,5.306-.985,8.57-3.012,9.978-1.591,1.1-3.937,1.27-6.679,1.3v-5.872l6.229-6.229a1.92,1.92,0,1,0-2.715-2.715l-3.514,3.514v-9.4a1.92,1.92,0,0,0-3.84,0v20.7c-2.742-.025-5.088-.193-6.679-1.3-2.027-1.408-3.012-4.672-3.012-9.978a37.86,37.86,0,0,1,.323-4.835,1.92,1.92,0,1,0-3.808-.492,41.716,41.716,0,0,0-.355,5.328c0,6.749,1.481,10.922,4.661,13.132.156.108.315.208.476.3-2.445,1.642-5.875,1.8-10,1.82V125.313l2.948-2.948a1.92,1.92,0,0,0-2.715-2.715l-.233.233V114.6a1.92,1.92,0,1,0-3.84,0v16.425L16.028,128.6a1.92,1.92,0,0,0-2.715,2.715l4.862,4.862a1.926,1.926,0,0,0,.271.224v8.958c-4.115-.016-7.657-.184-10.1-1.882ZM22.286,149.2a33.275,33.275,0,0,0,8.374-.793v6.523H22.286Z" transform="translate(0 0)" fill="#deb83d"/></g></svg>