<svg xmlns="http://www.w3.org/2000/svg" width="74.731" height="96.622" viewBox="0 0 74.731 96.622"><g transform="translate(-58)"><path d="M132.731,15.761,116.971,0H70.078V51.382a13.2,13.2,0,0,0-7.549,23.1V96.622H65.64l5.57-5.57,5.57,5.57h3.111V86.809h52.84Zm-15.1-11.895L128.866,15.1H117.634ZM60.265,64.541A10.946,10.946,0,1,1,71.21,75.486,10.958,10.958,0,0,1,60.265,64.541ZM71.21,87.85l-6.416,6.416V76.082a13.171,13.171,0,0,0,12.833,0V94.266Zm8.681-3.305V74.485a13.2,13.2,0,0,0-7.549-23.1V2.265H115.37v15.1h15.1V84.545Z" transform="translate(0)" fill="#deb83d"/><path d="M176,64h18.117v2.265H176Z" transform="translate(-95.732 -51.922)" fill="#deb83d"/><path d="M176,96h12.078v2.265H176Z" transform="translate(-95.732 -77.883)" fill="#deb83d"/><path d="M176,144h42.272v2.265H176Z" transform="translate(-95.732 -116.825)" fill="#deb83d"/><path d="M176,176h42.272v2.265H176Z" transform="translate(-95.732 -142.786)" fill="#deb83d"/><path d="M176,240h42.272v2.265H176Z" transform="translate(-95.732 -194.708)" fill="#deb83d"/><path d="M208,272h30.194v2.265H208Z" transform="translate(-121.693 -220.669)" fill="#deb83d"/><path d="M176,208h42.272v2.265H176Z" transform="translate(-95.732 -168.747)" fill="#deb83d"/><path d="M304,320h18.117v2.265H304Z" transform="translate(-199.576 -259.611)" fill="#deb83d"/><path d="M336,352h12.078v2.265H336Z" transform="translate(-225.537 -285.572)" fill="#deb83d"/><path d="M97.171,318.342A7.171,7.171,0,1,0,90,311.171,7.179,7.179,0,0,0,97.171,318.342Zm0-12.078a4.907,4.907,0,1,1-4.907,4.907A4.912,4.912,0,0,1,97.171,306.265Z" transform="translate(-25.961 -246.63)" fill="#deb83d"/></g></svg>