<svg xmlns="http://www.w3.org/2000/svg" width="189.919" height="58.184" viewBox="0 0 189.919 58.184"><path d="M244.606,60.745a24.338,24.338,0,0,1,24.282,22.72c.033-.531.055-1.065.055-1.6a25.643,25.643,0,1,0-42.881,18.984,24.335,24.335,0,0,1,18.544-40.1Z" transform="translate(-214.49 -47.307)" fill="#deb83d"/><path d="M243.721,53.305a29.5,29.5,0,0,1,29.33,29.662c0,.215-.01.429-.017.643a28.98,28.98,0,0,0,.856-6.639,29.718,29.718,0,0,0-59.4-1.412A29.633,29.633,0,0,1,243.721,53.305Z" transform="translate(-214.49 -47.307)" fill="#fff"/><path d="M247.822,101.393A20.647,20.647,0,0,1,227,80.928a20.145,20.145,0,0,1,4.4-12.58,21.552,21.552,0,1,0,36.132,19.173A20.8,20.8,0,0,1,247.822,101.393Z" transform="translate(-214.49 -47.307)" fill="#0b422f"/><g transform="translate(-214.49 -47.307)"><path d="M244.408,86.972a7.838,7.838,0,0,1-2.341,1.061,10.71,10.71,0,0,1-2.467.219,6.471,6.471,0,0,1-4.339-1.4,5.1,5.1,0,0,1-1.78-4.121,8.452,8.452,0,0,1,2.5-6.056,7.959,7.959,0,0,1,5.931-2.591,7.622,7.622,0,0,1,1.967.343,7.464,7.464,0,0,0,1.717.343,1.5,1.5,0,0,0,1.093-.718l.468.125-1.061,4.184-.5-.063q-.373-3.372-3.621-3.371-2.748,0-4.527,2.9a10.054,10.054,0,0,0-1.561,5.432,4.21,4.21,0,0,0,1.03,2.982,3.772,3.772,0,0,0,2.9,1.107,3.353,3.353,0,0,0,2.014-.483,3.11,3.11,0,0,0,.952-1.827q.561-2.466.562-2.715c0-.271-.209-.448-.625-.531-.312-.042-.635-.083-.967-.125V81.2h5.65v.469a2.6,2.6,0,0,0-1.436.375,5.076,5.076,0,0,0-.937,2.372Q244.439,86.848,244.408,86.972Z" fill="#fff"/><path d="M257.863,87.909H247.217V87.44a2.224,2.224,0,0,0,1.28-.562,4.3,4.3,0,0,0,.531-1.342l2.529-9.116a3.1,3.1,0,0,0,.093-.749.716.716,0,0,0-.561-.718,6.967,6.967,0,0,0-1.031-.125v-.5h5.807v.5a3.1,3.1,0,0,0-1.467.406,2.181,2.181,0,0,0-.687,1.248q-2.653,9.679-2.654,9.835,0,.717,1.4.718a10.424,10.424,0,0,0,3.715-.437,5.8,5.8,0,0,0,2.342-2.685l.53.187Z" fill="#fff"/></g><g transform="translate(-214.49 -47.307)"><path d="M293.085,73.352a2.571,2.571,0,0,0-1.375.359,5.235,5.235,0,0,0-.917,2.332q-.6,2.412-.617,2.451a7.481,7.481,0,0,1-2.212,1.017,10.1,10.1,0,0,1-2.372.219,6.266,6.266,0,0,1-4.165-1.336,4.894,4.894,0,0,1-1.694-3.945,8.121,8.121,0,0,1,2.4-5.82,7.662,7.662,0,0,1,5.71-2.491,7.268,7.268,0,0,1,1.963.339,7.056,7.056,0,0,0,1.584.339,1.462,1.462,0,0,0,1.1-.7l.318.1-.976,3.926-.379-.06a7.485,7.485,0,0,0-.179-1.1,2.844,2.844,0,0,0-1.335-1.634,3.912,3.912,0,0,0-2.053-.538,5.142,5.142,0,0,0-4.444,2.83,9.931,9.931,0,0,0-1.515,5.321,4.07,4.07,0,0,0,1,2.909,3.721,3.721,0,0,0,2.87,1.116A3.319,3.319,0,0,0,287.8,78.5a3.052,3.052,0,0,0,.937-1.8q.178-.657.339-1.315a5.791,5.791,0,0,0,.219-1.335q0-.418-.6-.578l-.937-.12v-.318h5.321Z" fill="#fff"/><path d="M298.346,75.007l1.216,3.248a1.075,1.075,0,0,0,1.056.817v.319h-2.013l-1.634-4.245-.757-.08-.8,3.089a2.024,2.024,0,0,0-.08.5q0,.3.9.439v.3h-3.328v-.3a2.261,2.261,0,0,0,.767-.279,1.983,1.983,0,0,0,.309-.717l1.574-5.66a3.463,3.463,0,0,0,.18-.9q0-.438-.937-.5v-.319h3.428a3.446,3.446,0,0,1,1.793.418,1.631,1.631,0,0,1,.877,1.515Q300.9,74.468,298.346,75.007Zm-.5-3.787a.78.78,0,0,0-.508.119,23.924,23.924,0,0,0-.947,3.149,4,4,0,0,0,.7.06q2.311,0,2.312-1.893Q299.4,71.219,297.848,71.22Z" fill="#fff"/><path d="M305.461,79.63a3.5,3.5,0,0,1-1.973-.538,1.936,1.936,0,0,1-.957-1.714,12.237,12.237,0,0,1,.518-2.671q.36-1.2.718-2.411a3.1,3.1,0,0,0,.139-.777q0-.418-1.036-.478v-.319h3.687v.319a1.708,1.708,0,0,0-.957.3,2.5,2.5,0,0,0-.438.977l-.8,2.83a11.354,11.354,0,0,0-.518,2.391,1.26,1.26,0,0,0,.578,1.1,2.115,2.115,0,0,0,1.235.358q1.934,0,2.611-2.451l.916-3.348a10.553,10.553,0,0,0,.379-1.634q0-.519-.936-.518v-.319h2.73v.3a1.677,1.677,0,0,0-.737.3,1.59,1.59,0,0,0-.36.7l-1.374,4.743Q308.052,79.629,305.461,79.63Z" fill="#fff"/><path d="M315.007,75.4a4.7,4.7,0,0,1-.956-.1q-.24.817-.5,1.654a7.965,7.965,0,0,0-.36,1.574.45.45,0,0,0,.3.458,4.34,4.34,0,0,0,.618.1v.3h-3.329v-.3a4.441,4.441,0,0,0,.719-.219,1.125,1.125,0,0,0,.338-.678l1.574-5.64a5.2,5.2,0,0,0,.22-1.036c0-.279-.318-.438-.957-.478v-.319H316.2A3.392,3.392,0,0,1,318,71.16a1.768,1.768,0,0,1,.816,1.575,2.258,2.258,0,0,1-1.255,2.132A5.267,5.267,0,0,1,315.007,75.4Zm.6-4.185a.482.482,0,0,0-.5.369q-.12.369-.219.727l-.678,2.432a4.572,4.572,0,0,0,.737.059q2.412,0,2.412-2.052a1.422,1.422,0,0,0-.458-1.216A2.039,2.039,0,0,0,315.605,71.22Z" fill="#fff"/><path d="M322.62,79.63a2.713,2.713,0,0,1-2.172-.957,3.426,3.426,0,0,1-.758-2.292,5.878,5.878,0,0,1,1.684-3.926,4.914,4.914,0,0,1,3.7-1.893,3,3,0,0,1,2.282.867,3.226,3.226,0,0,1,.827,2.322,5.842,5.842,0,0,1-1.7,4.025A5.131,5.131,0,0,1,322.62,79.63Zm2.391-8.549q-1.674,0-2.829,2.271a8.107,8.107,0,0,0-1,3.767q0,1.972,1.634,1.973,1.674,0,2.85-2.232a8.033,8.033,0,0,0,1.017-3.787Q326.686,71.081,325.011,71.081Z" fill="#fff"/><path d="M344.6,75.823l-1.136,3.568H333.282v-.319a2.015,2.015,0,0,0,1.255-.558,5.287,5.287,0,0,0,.5-1.315l2.451-8.849a2.758,2.758,0,0,0,.1-.737.748.748,0,0,0-.538-.757,5.245,5.245,0,0,0-1.017-.14v-.339h5.481v.339a2.844,2.844,0,0,0-1.4.418,2.327,2.327,0,0,0-.677,1.236l-2.551,9.247a1.07,1.07,0,0,0-.039.3q0,.8,1.514.8a12.4,12.4,0,0,0,2.869-.239,3.9,3.9,0,0,0,2.292-1.574q.14-.219.678-1.216Z" fill="#fff"/><path d="M351.238,79.59q-.818,0-.817-.777a10.782,10.782,0,0,1,.4-2.132q-1.5,1.813-1.655,1.972a3.361,3.361,0,0,1-2.331.977,1.759,1.759,0,0,1-1.475-.7,2.58,2.58,0,0,1-.478-1.594,7.116,7.116,0,0,1,1.734-4.384q1.853-2.352,3.965-2.352a1.559,1.559,0,0,1,1.575,1.037l.2-.857c.479-.08.9-.14,1.276-.18l.179.06-1.335,5.161q-.558,2.193-.558,2.412c0,.2.086.3.259.3s.444-.206.857-.618q.358-.378.737-.757l.259.239a18.193,18.193,0,0,1-1.215,1.395A2.392,2.392,0,0,1,351.238,79.59Zm-.718-8.49q-1.475,0-2.769,2.432a8.239,8.239,0,0,0-1.156,3.786,1.3,1.3,0,0,0,.338.9,1.1,1.1,0,0,0,.857.379q1.494,0,2.811-2.452a8.2,8.2,0,0,0,1.175-3.826A1.093,1.093,0,0,0,350.52,71.1Z" fill="#fff"/><path d="M359.768,75.007l1.215,3.248a1.076,1.076,0,0,0,1.056.817v.319h-2.012l-1.634-4.245-.758-.08-.8,3.089a1.986,1.986,0,0,0-.081.5c0,.2.3.346.9.439v.3h-3.328v-.3a2.251,2.251,0,0,0,.767-.279,1.965,1.965,0,0,0,.309-.717l1.575-5.66a3.452,3.452,0,0,0,.179-.9q0-.438-.936-.5v-.319h3.427a3.447,3.447,0,0,1,1.794.418,1.63,1.63,0,0,1,.876,1.515Q362.318,74.468,359.768,75.007Zm-.5-3.787a.778.778,0,0,0-.508.119,23.741,23.741,0,0,0-.947,3.149,3.989,3.989,0,0,0,.7.06q2.312,0,2.312-1.893Q360.824,71.219,359.27,71.22Z" fill="#fff"/><path d="M367.879,75.007l1.216,3.248a1.076,1.076,0,0,0,1.056.817v.319h-2.013L366.5,75.146l-.757-.08-.8,3.089a1.976,1.976,0,0,0-.08.5q0,.3.9.439v.3h-3.328v-.3a2.27,2.27,0,0,0,.767-.279,1.984,1.984,0,0,0,.309-.717l1.574-5.66a3.494,3.494,0,0,0,.179-.9q0-.438-.936-.5v-.319h3.428a3.446,3.446,0,0,1,1.793.418,1.633,1.633,0,0,1,.877,1.515Q370.43,74.468,367.879,75.007Zm-.5-3.787a.78.78,0,0,0-.508.119,23.936,23.936,0,0,0-.947,3.149,4,4,0,0,0,.7.06q2.31,0,2.311-1.893Q368.935,71.219,367.381,71.22Z" fill="#fff"/><path d="M377.425,79.59q-.817,0-.817-.777a10.833,10.833,0,0,1,.4-2.132q-1.494,1.813-1.653,1.972a3.365,3.365,0,0,1-2.332.977,1.758,1.758,0,0,1-1.475-.7,2.58,2.58,0,0,1-.478-1.594,7.127,7.127,0,0,1,1.733-4.384q1.854-2.352,3.966-2.352a1.557,1.557,0,0,1,1.575,1.037l.2-.857q.717-.12,1.276-.18l.179.06-1.335,5.161q-.558,2.193-.558,2.412c0,.2.086.3.259.3s.445-.206.857-.618q.359-.378.738-.757l.258.239A17.89,17.89,0,0,1,379,78.793,2.383,2.383,0,0,1,377.425,79.59Zm-.717-8.49q-1.475,0-2.77,2.432a8.242,8.242,0,0,0-1.157,3.786,1.3,1.3,0,0,0,.34.9,1.1,1.1,0,0,0,.857.379q1.492,0,2.809-2.452a8.191,8.191,0,0,0,1.177-3.826A1.093,1.093,0,0,0,376.708,71.1Z" fill="#fff"/><path d="M385.955,75.007l1.215,3.248a1.077,1.077,0,0,0,1.057.817v.319h-2.013l-1.634-4.245-.758-.08-.8,3.089a2.023,2.023,0,0,0-.08.5q0,.3.9.439v.3h-3.328v-.3a2.242,2.242,0,0,0,.767-.279,1.947,1.947,0,0,0,.309-.717l1.575-5.66a3.463,3.463,0,0,0,.18-.9q0-.438-.937-.5v-.319h3.427a3.447,3.447,0,0,1,1.794.418,1.633,1.633,0,0,1,.877,1.515Q388.506,74.468,385.955,75.007Zm-.5-3.787a.777.777,0,0,0-.507.119A23.924,23.924,0,0,0,384,74.488a4,4,0,0,0,.7.06q2.311,0,2.311-1.893Q387.011,71.219,385.456,71.22Z" fill="#fff"/><path d="M396.617,72.974l-.319-.04q.041-.6.04-.638a.882.882,0,0,0-.678-.937,6.142,6.142,0,0,0-1.3-.079L392.492,78a2.134,2.134,0,0,0-.1.6q0,.378.459.458l.737.04v.3h-3.926v-.3a3.22,3.22,0,0,0,.916-.219,1.216,1.216,0,0,0,.5-.758l1.833-6.835h-.039a4.8,4.8,0,0,0-1.814.219,2.956,2.956,0,0,0-1.136,1.415l-.339-.1.578-2.092h7.075Z" fill="#fff"/><path d="M398.67,75.7a5.292,5.292,0,0,0-.18,1.2,1.64,1.64,0,0,0,.538,1.305,2.048,2.048,0,0,0,1.395.468,4.529,4.529,0,0,0,2.87-1.514l.259.3a5.25,5.25,0,0,1-4.126,2.132,2.534,2.534,0,0,1-1.9-.727,2.644,2.644,0,0,1-.707-1.924,6.285,6.285,0,0,1,1.873-4.3,5.544,5.544,0,0,1,4.126-2.033,1.871,1.871,0,0,1,1.126.339,1.152,1.152,0,0,1,.468,1,2.741,2.741,0,0,1-1.036,2.053,6.048,6.048,0,0,1-2.093,1.176A18.875,18.875,0,0,1,398.67,75.7Zm3.686-4.584q-1.075,0-2.192,1.555a9.316,9.316,0,0,0-1.315,2.551q4.185-1.056,4.185-3.408A.608.608,0,0,0,402.356,71.12Z" fill="#fff"/></g><g transform="translate(-214.49 -47.307)"><path d="M280.388,85.735l1.023-3.523a1.284,1.284,0,0,0,.082-.573c-.028-.1-.123-.167-.288-.194l-.259-.027.056-.191h1.962l-.056.191-.131.023a.492.492,0,0,0-.294.141.844.844,0,0,0-.178.349l-1.022,3.524a1.226,1.226,0,0,0-.08.572c.028.1.124.168.286.195l.259.026-.053.191h-1.962l.053-.191.131-.023a.5.5,0,0,0,.3-.142A.784.784,0,0,0,280.388,85.735Z" fill="#fff"/><path d="M283.267,83.522a.354.354,0,0,0-.015-.313.409.409,0,0,0-.313-.094l-.157,0,.042-.157.639-.109.64-.109-.427,1.561a7.29,7.29,0,0,1,.532-.745q.678-.812,1.175-.812a.463.463,0,0,1,.453.265.956.956,0,0,1,.016.685l-.582,2.124a.564.564,0,0,0-.027.225.079.079,0,0,0,.084.075c.042,0,.119-.054.23-.161a4.382,4.382,0,0,0,.372-.423l.131.09a2.649,2.649,0,0,1-.541.66.875.875,0,0,1-.529.263.364.364,0,0,1-.351-.184.682.682,0,0,1-.014-.5l.621-2.263a.5.5,0,0,0,.014-.306.168.168,0,0,0-.176-.106q-.348,0-.88.7a5.638,5.638,0,0,0-.824,1.542l-.277,1.015h-.633Z" fill="#fff"/><path d="M287.12,83.556a.576.576,0,0,0-.156-.326.553.553,0,0,0-.334-.112l-.149,0,.008-.157.535-.113.539-.112a15.325,15.325,0,0,1,.323,1.81q.053.5.072,1.132l0,0q.41-.5.713-.937.237-.35.464-.752a.488.488,0,0,0,.082-.295.732.732,0,0,0-.157-.317l-.026-.034a.518.518,0,0,1,0-.51.234.234,0,0,1,.2-.088c.2,0,.334.127.385.38a1.136,1.136,0,0,1-.152.791q-.248.451-.494.823a15.112,15.112,0,0,1-1.468,1.809l-.063-.051-.067-.053a17.779,17.779,0,0,0-.094-1.9C287.239,84.248,287.187,83.918,287.12,83.556Z" fill="#fff"/><path d="M290.946,86.543a1.043,1.043,0,0,1-.786-.314,1.1,1.1,0,0,1-.3-.8V85.41a1.71,1.71,0,0,1,.037-.362,2.909,2.909,0,0,1,.1-.395,3.131,3.131,0,0,1,.9-1.359,1.922,1.922,0,0,1,1.265-.554.928.928,0,0,1,.564.153.505.505,0,0,1,.2.427,1.294,1.294,0,0,1-.631,1.045,3.634,3.634,0,0,1-1.651.588l-.015,0-.022.1a1.677,1.677,0,0,0-.042.356.667.667,0,0,0,.193.518.8.8,0,0,0,.563.178,1.118,1.118,0,0,0,.512-.144,2.31,2.31,0,0,0,.546-.407l.112.121a3.013,3.013,0,0,1-.774.631A1.628,1.628,0,0,1,290.946,86.543ZM292.084,83a1,1,0,0,0-.725.449,3.756,3.756,0,0,0-.621,1.186l-.027.072.035,0a1.989,1.989,0,0,0,1.079-.528,1.254,1.254,0,0,0,.495-.9.3.3,0,0,0-.062-.2A.213.213,0,0,0,292.084,83Z" fill="#fff"/><path d="M294.053,83.522a.358.358,0,0,0-.014-.313.416.416,0,0,0-.315-.094l-.157,0,.041-.157.618-.109.621-.109-.4,1.479q.176-.31.366-.591.6-.883,1-.884a.358.358,0,0,1,.326.181.518.518,0,0,1,.044.425.358.358,0,0,1-.13.2.332.332,0,0,1-.207.078.372.372,0,0,1-.163-.039.3.3,0,0,1-.118-.1c-.058-.09-.1-.135-.127-.135q-.221,0-.637.712a7.633,7.633,0,0,0-.681,1.546l-.251.831h-.61Z" fill="#fff"/><path d="M298.486,83.863a1.185,1.185,0,0,0-.215-.648.566.566,0,0,0-.463-.239.43.43,0,0,0-.29.1.448.448,0,0,0-.147.274.667.667,0,0,0,.059.4,3.465,3.465,0,0,0,.374.6,3.5,3.5,0,0,1,.443.737,1,1,0,0,1,.063.345,1.124,1.124,0,0,1-.022.213,1.063,1.063,0,0,1-.4.651,1.2,1.2,0,0,1-.757.243,2.017,2.017,0,0,1-.707-.119.185.185,0,0,0-.136-.007.249.249,0,0,0-.115.1l-.018.029h-.124l.161-1.291.15.023a1.546,1.546,0,0,0,.262.769.631.631,0,0,0,.525.271.557.557,0,0,0,.361-.135.577.577,0,0,0,.2-.329.764.764,0,0,0-.053-.449,3.151,3.151,0,0,0-.378-.621,3.337,3.337,0,0,1-.42-.723,1.163,1.163,0,0,1-.086-.408l.015-.143a.945.945,0,0,1,.328-.555.922.922,0,0,1,.609-.212,1.51,1.51,0,0,1,.58.112.334.334,0,0,0,.21.014.338.338,0,0,0,.179-.115l.011-.011h.116l-.165,1.145Z" fill="#fff"/><path d="M299.261,85.572l.562-2.05a.27.27,0,0,0-.308-.407l-.149,0,.041-.157.629-.109.632-.109-.79,2.891a1.223,1.223,0,0,0-.059.365c.005.081.035.122.09.122a.4.4,0,0,0,.261-.122,2.509,2.509,0,0,0,.341-.42l.131.089a2.671,2.671,0,0,1-.527.655.794.794,0,0,1-.51.227.37.37,0,0,1-.378-.261.667.667,0,0,1-.037-.254A1.719,1.719,0,0,1,299.261,85.572Zm1.305-4.449a.375.375,0,0,1,.285.125.467.467,0,0,1,0,.618.389.389,0,0,1-.571,0,.467.467,0,0,1,0-.618A.376.376,0,0,1,300.566,81.123Z" fill="#fff"/><path d="M301.561,86.212a1.159,1.159,0,0,1-.338-.855,2.591,2.591,0,0,1,.027-.282,2.375,2.375,0,0,1,.066-.3,3.076,3.076,0,0,1,.9-1.423,1.979,1.979,0,0,1,1.317-.61,1.172,1.172,0,0,1,.865.332,1.157,1.157,0,0,1,.333.858,1.912,1.912,0,0,1-.026.285,3.017,3.017,0,0,1-.064.3,3.056,3.056,0,0,1-.906,1.419,1.958,1.958,0,0,1-1.307.606A1.182,1.182,0,0,1,301.561,86.212Zm1.712-.392a3.565,3.565,0,0,0,.6-1.241,4.6,4.6,0,0,0,.111-.471,2.463,2.463,0,0,0,.039-.4.869.869,0,0,0-.15-.529.5.5,0,0,0-.417-.189,1.044,1.044,0,0,0-.774.471,3.651,3.651,0,0,0-.6,1.247c-.045.162-.082.319-.108.468a2.428,2.428,0,0,0-.039.39.845.845,0,0,0,.148.529.5.5,0,0,0,.418.19A1.037,1.037,0,0,0,303.273,85.82Z" fill="#fff"/><path d="M305.746,83.522a.354.354,0,0,0-.015-.313.412.412,0,0,0-.314-.094l-.157,0,.042-.157.64-.109.64-.109-.427,1.561a7.29,7.29,0,0,1,.532-.745c.451-.541.844-.812,1.175-.812a.464.464,0,0,1,.453.265.956.956,0,0,1,.016.685l-.582,2.124a.551.551,0,0,0-.028.225.079.079,0,0,0,.084.075c.042,0,.119-.054.231-.161a4.524,4.524,0,0,0,.372-.423l.131.09a2.671,2.671,0,0,1-.541.66.877.877,0,0,1-.53.263.362.362,0,0,1-.35-.184.672.672,0,0,1-.014-.5l.62-2.263a.513.513,0,0,0,.015-.306.169.169,0,0,0-.176-.106q-.348,0-.881.7a5.636,5.636,0,0,0-.823,1.542l-.277,1.015h-.633Z" fill="#fff"/><path d="M310.032,86.543a1.041,1.041,0,0,1-.786-.314,1.092,1.092,0,0,1-.3-.8V85.41a1.71,1.71,0,0,1,.037-.362,2.909,2.909,0,0,1,.1-.395,3.131,3.131,0,0,1,.9-1.359,1.922,1.922,0,0,1,1.265-.554.928.928,0,0,1,.564.153.505.505,0,0,1,.2.427,1.294,1.294,0,0,1-.631,1.045,3.634,3.634,0,0,1-1.651.588l-.015,0-.022.1a1.677,1.677,0,0,0-.042.356.667.667,0,0,0,.193.518.8.8,0,0,0,.562.178,1.119,1.119,0,0,0,.513-.144,2.31,2.31,0,0,0,.546-.407l.112.121a3.013,3.013,0,0,1-.774.631A1.628,1.628,0,0,1,310.032,86.543ZM311.17,83a1,1,0,0,0-.725.449,3.756,3.756,0,0,0-.621,1.186l-.027.072.035,0a1.989,1.989,0,0,0,1.079-.528,1.254,1.254,0,0,0,.495-.9.3.3,0,0,0-.062-.2A.213.213,0,0,0,311.17,83Z" fill="#fff"/><path d="M314.6,83.863a1.186,1.186,0,0,0-.215-.648.565.565,0,0,0-.463-.239.428.428,0,0,0-.289.1.46.46,0,0,0-.149.274.669.669,0,0,0,.061.4,3.386,3.386,0,0,0,.373.6,3.5,3.5,0,0,1,.443.737,1.023,1.023,0,0,1,.063.345,1.124,1.124,0,0,1-.022.213,1.057,1.057,0,0,1-.4.651,1.207,1.207,0,0,1-.758.243,2.011,2.011,0,0,1-.706-.119.188.188,0,0,0-.137-.007.242.242,0,0,0-.114.1l-.019.029h-.124l.161-1.291.151.023a1.546,1.546,0,0,0,.261.769.631.631,0,0,0,.525.271.56.56,0,0,0,.362-.135.581.581,0,0,0,.2-.329.772.772,0,0,0-.053-.449,3.24,3.24,0,0,0-.377-.621,3.3,3.3,0,0,1-.42-.723,1.14,1.14,0,0,1-.086-.408l.014-.143a.95.95,0,0,1,.328-.555.926.926,0,0,1,.609-.212,1.51,1.51,0,0,1,.58.112.339.339,0,0,0,.389-.1l.012-.011h.115l-.164,1.145Z" fill="#fff"/><path d="M318.654,86.543a1.045,1.045,0,0,1-.787-.314,1.1,1.1,0,0,1-.3-.8V85.41a1.779,1.779,0,0,1,.037-.362,2.911,2.911,0,0,1,.106-.395,3.111,3.111,0,0,1,.9-1.359,1.922,1.922,0,0,1,1.266-.554.922.922,0,0,1,.562.153.5.5,0,0,1,.2.427,1.293,1.293,0,0,1-.63,1.045,3.643,3.643,0,0,1-1.653.588l-.013,0-.024.1a1.811,1.811,0,0,0-.041.356.668.668,0,0,0,.194.518.791.791,0,0,0,.562.178,1.122,1.122,0,0,0,.512-.144,2.314,2.314,0,0,0,.547-.407l.111.121a3,3,0,0,1-.774.631A1.631,1.631,0,0,1,318.654,86.543ZM319.793,83a1,1,0,0,0-.727.449,3.8,3.8,0,0,0-.621,1.186l-.025.072.033,0a1.988,1.988,0,0,0,1.08-.528,1.252,1.252,0,0,0,.494-.9.3.3,0,0,0-.06-.2A.215.215,0,0,0,319.793,83Z" fill="#fff"/><path d="M321.578,83.522a.355.355,0,0,0-.014-.313.412.412,0,0,0-.314-.094l-.156,0,.041-.157.64-.109.639-.109-.426,1.561a7.138,7.138,0,0,1,.532-.745q.677-.812,1.175-.812a.464.464,0,0,1,.453.265.962.962,0,0,1,.016.685l-.582,2.124a.546.546,0,0,0-.027.225.078.078,0,0,0,.084.075c.041,0,.119-.054.23-.161a4.25,4.25,0,0,0,.371-.423l.131.09a2.606,2.606,0,0,1-.541.66.872.872,0,0,1-.529.263.363.363,0,0,1-.35-.184.682.682,0,0,1-.014-.5l.62-2.263a.5.5,0,0,0,.015-.306.168.168,0,0,0-.176-.106c-.232,0-.527.232-.88.7a5.641,5.641,0,0,0-.825,1.542l-.277,1.015h-.633Z" fill="#fff"/><path d="M329.535,86.543a2.181,2.181,0,0,1-1.576-.587,2,2,0,0,1-.615-1.512,3.246,3.246,0,0,1,.959-2.325,3.011,3.011,0,0,1,2.236-1,3.094,3.094,0,0,1,1.18.22.459.459,0,0,0,.258.019.625.625,0,0,0,.271-.119l.117-.094.156.026-.412,1.617-.177-.03a1.291,1.291,0,0,0-.426-.943,1.483,1.483,0,0,0-1.027-.352,1.905,1.905,0,0,0-1.575.95,3.872,3.872,0,0,0-.66,2.266,1.376,1.376,0,0,0,1.508,1.517h.074a1.023,1.023,0,0,0,.67-.173,1.372,1.372,0,0,0,.336-.693l.16-.625a.718.718,0,0,0,.016-.444q-.064-.122-.33-.162l-.283-.026.05-.192H332.6l-.053.192-.168.022a.681.681,0,0,0-.375.141.647.647,0,0,0-.188.349l-.382,1.479a3.792,3.792,0,0,1-1.9.475Z" fill="#fff"/><path d="M333.174,86.543a.7.7,0,0,1-.57-.265,1.026,1.026,0,0,1-.223-.685,2.984,2.984,0,0,1,.769-1.926,2.13,2.13,0,0,1,1.6-.927.6.6,0,0,1,.561.341l.015.026.071-.262h.587l-.775,2.827a.97.97,0,0,0-.049.331c.008.074.039.111.094.111.031,0,.1-.054.211-.161s.234-.248.381-.423l.127.124a2.578,2.578,0,0,1-.563.636.912.912,0,0,1-.539.253.3.3,0,0,1-.3-.2.87.87,0,0,1,.016-.539l.1-.381a3.409,3.409,0,0,1-.265.36A1.689,1.689,0,0,1,333.174,86.543ZM334.74,83q-.529,0-1.092.839a2.935,2.935,0,0,0-.564,1.635.869.869,0,0,0,.115.485.365.365,0,0,0,.322.17q.439,0,.877-.62a5.185,5.185,0,0,0,.717-1.633.921.921,0,0,0-.015-.615A.376.376,0,0,0,334.74,83Z" fill="#fff"/><path d="M336.992,83.522a.358.358,0,0,0-.015-.313.411.411,0,0,0-.313-.094l-.158,0,.043-.157.638-.109.641-.109L337.4,84.3a7.157,7.157,0,0,1,.534-.745q.677-.812,1.173-.812a.465.465,0,0,1,.454.265.957.957,0,0,1,.015.685l-.582,2.124a.583.583,0,0,0-.027.225.08.08,0,0,0,.084.075c.043,0,.119-.054.23-.161a4.243,4.243,0,0,0,.373-.423l.131.09a2.693,2.693,0,0,1-.541.66.877.877,0,0,1-.529.263.366.366,0,0,1-.352-.184.678.678,0,0,1-.013-.5l.621-2.263a.5.5,0,0,0,.013-.306.167.167,0,0,0-.175-.106q-.35,0-.881.7a5.635,5.635,0,0,0-.823,1.542l-.277,1.015H336.2Z" fill="#fff"/><path d="M340.811,86.543a.711.711,0,0,1-.571-.265,1.031,1.031,0,0,1-.222-.685,2.979,2.979,0,0,1,.769-1.926,2.137,2.137,0,0,1,1.6-.927.6.6,0,0,1,.562.341l.016.026.07-.262h.586l-.775,2.827A1.022,1.022,0,0,0,342.8,86c.008.074.039.111.094.111.033,0,.1-.054.213-.161s.234-.248.378-.423l.127.124a2.609,2.609,0,0,1-.56.636.912.912,0,0,1-.539.253.3.3,0,0,1-.3-.2.878.878,0,0,1,.016-.539l.105-.381a3.72,3.72,0,0,1-.266.36A1.7,1.7,0,0,1,340.811,86.543ZM342.377,83q-.528,0-1.092.839a2.947,2.947,0,0,0-.562,1.635.87.87,0,0,0,.113.485.366.366,0,0,0,.324.17c.293,0,.584-.207.877-.62a5.254,5.254,0,0,0,.715-1.633.914.914,0,0,0-.016-.615A.372.372,0,0,0,342.377,83Z" fill="#fff"/><path d="M344.7,86.543a.776.776,0,0,1-.625-.288,1.11,1.11,0,0,1-.244-.741,2.873,2.873,0,0,1,.787-1.846,2.144,2.144,0,0,1,1.559-.928.5.5,0,0,1,.527.371l.4-1.472c.017-.064-.014-.107-.092-.127a1.663,1.663,0,0,0-.448,0l0-.022.045-.153.629-.106.637-.1L346.625,85.7a.982.982,0,0,0-.047.308c.006.07.035.1.084.1s.127-.055.244-.163a4.387,4.387,0,0,0,.4-.432l.131.119a3.465,3.465,0,0,1-.6.648.871.871,0,0,1-.5.257.368.368,0,0,1-.375-.2.933.933,0,0,1,.019-.6l.041-.154a3.116,3.116,0,0,1-.216.278A1.558,1.558,0,0,1,344.7,86.543ZM346.164,83c-.328,0-.672.285-1.037.857a3.12,3.12,0,0,0-.541,1.628.837.837,0,0,0,.113.479.38.38,0,0,0,.336.165q.334,0,.738-.545a3.82,3.82,0,0,0,.6-1.271,2.583,2.583,0,0,0,.127-.986C346.465,83.108,346.354,83,346.164,83Z" fill="#fff"/><path d="M348.916,86.543a1.04,1.04,0,0,1-.785-.314,1.088,1.088,0,0,1-.3-.8V85.41a1.648,1.648,0,0,1,.037-.362,3.074,3.074,0,0,1,.1-.395,3.138,3.138,0,0,1,.9-1.359,1.922,1.922,0,0,1,1.266-.554.93.93,0,0,1,.564.153.507.507,0,0,1,.2.427,1.292,1.292,0,0,1-.631,1.045,3.621,3.621,0,0,1-1.65.588l-.016,0-.021.1a1.683,1.683,0,0,0-.043.356.667.667,0,0,0,.193.518.8.8,0,0,0,.563.178,1.122,1.122,0,0,0,.513-.144,2.306,2.306,0,0,0,.545-.407l.114.121a3.022,3.022,0,0,1-.776.631A1.625,1.625,0,0,1,348.916,86.543ZM350.055,83a1,1,0,0,0-.725.449,3.716,3.716,0,0,0-.621,1.186l-.027.072.035,0a1.986,1.986,0,0,0,1.078-.528,1.255,1.255,0,0,0,.5-.9.3.3,0,0,0-.062-.2A.214.214,0,0,0,350.055,83Z" fill="#fff"/><path d="M352.023,83.522a.356.356,0,0,0-.013-.313.418.418,0,0,0-.315-.094l-.158,0,.041-.157.619-.109.621-.109-.4,1.479c.117-.207.238-.4.365-.591q.607-.883,1-.884a.359.359,0,0,1,.326.181.514.514,0,0,1,.043.425.351.351,0,0,1-.129.2.334.334,0,0,1-.207.078.376.376,0,0,1-.164-.039.318.318,0,0,1-.117-.1c-.058-.09-.1-.135-.127-.135-.148,0-.359.237-.636.712a7.636,7.636,0,0,0-.682,1.546l-.252.831h-.609Z" fill="#fff"/><path d="M354.266,85.572l.562-2.05a.27.27,0,0,0-.307-.407l-.15,0,.041-.157.629-.109.633-.109-.789,2.891a1.207,1.207,0,0,0-.061.365c.006.081.035.122.09.122a.4.4,0,0,0,.262-.122,2.608,2.608,0,0,0,.342-.42l.13.089a2.584,2.584,0,0,1-.529.655.79.79,0,0,1-.508.227.371.371,0,0,1-.379-.261.686.686,0,0,1-.037-.254A1.76,1.76,0,0,1,354.266,85.572Zm.685-3.288.975-1.049a.232.232,0,0,1,.051-.053.424.424,0,0,1,.252-.1.242.242,0,0,1,.208.087.248.248,0,0,1,.057.158l-.008.067a.427.427,0,0,1-.15.225l-.055.041-1.213.763Z" fill="#fff"/><path d="M356.928,86.543a.711.711,0,0,1-.571-.265,1.031,1.031,0,0,1-.222-.685,2.984,2.984,0,0,1,.769-1.926,2.137,2.137,0,0,1,1.6-.927.6.6,0,0,1,.562.341l.016.026.07-.262h.586l-.775,2.827a1.024,1.024,0,0,0-.049.331c.008.074.039.111.094.111.033,0,.1-.054.213-.161s.234-.248.379-.423l.127.124a2.633,2.633,0,0,1-.561.636.912.912,0,0,1-.539.253.3.3,0,0,1-.3-.2.878.878,0,0,1,.016-.539l.105-.381a3.882,3.882,0,0,1-.265.36A1.7,1.7,0,0,1,356.928,86.543ZM358.494,83q-.526,0-1.092.839a2.947,2.947,0,0,0-.562,1.635.87.87,0,0,0,.113.485.366.366,0,0,0,.324.17c.293,0,.584-.207.877-.62a5.231,5.231,0,0,0,.715-1.633.909.909,0,0,0-.015-.615A.374.374,0,0,0,358.494,83Z" fill="#fff"/><path d="M361.891,88.007a.282.282,0,0,1-.112-.243.361.361,0,0,1,.092-.259.354.354,0,0,1,.26-.093.423.423,0,0,1,.219.107.414.414,0,0,0,.216.106.435.435,0,0,0,.27-.116,1.63,1.63,0,0,0,.3-.371l.074-.112.377-.6a18.548,18.548,0,0,0-.338-1.84q-.132-.511-.346-1.116a.478.478,0,0,0-.256-.3,1.131,1.131,0,0,0-.529-.049v-.146l.528-.116.529-.116a.206.206,0,0,1,.183.124,4.184,4.184,0,0,1,.219.588c.125.412.225.791.3,1.135s.125.708.182,1.127l.123-.213a12.9,12.9,0,0,0,.7-1.462.961.961,0,0,0,.092-.435.316.316,0,0,0-.186-.239l-.1-.052a.269.269,0,0,1-.119-.229.345.345,0,0,1,.076-.258.318.318,0,0,1,.243-.086.4.4,0,0,1,.4.312,1.076,1.076,0,0,1-.068.733,14.629,14.629,0,0,1-.789,1.737,15.637,15.637,0,0,1-.971,1.5,3.935,3.935,0,0,1-.68.771,1.014,1.014,0,0,1-.586.3A.479.479,0,0,1,361.891,88.007Z" fill="#fff"/><path d="M368.324,85.735l1.024-3.523a1.163,1.163,0,0,0,.074-.573c-.033-.1-.139-.167-.32-.194l-.286-.027.057-.191h3.877l-.15.612-.145.617-.184-.027.026-.3a.466.466,0,0,0-.235-.453,2.3,2.3,0,0,0-.9-.114h-.506a.508.508,0,0,0-.3.069.55.55,0,0,0-.15.28l-.473,1.631h.518a1.55,1.55,0,0,0,.674-.117.935.935,0,0,0,.388-.418l.094-.186.18.033-.278.921-.277.925-.172-.045.026-.184c.033-.239-.008-.4-.121-.475a1.553,1.553,0,0,0-.754-.116h-.375l-.457,1.573a1.092,1.092,0,0,0-.069.572c.035.1.147.168.334.195l.3.026-.053.191h-2.023l.053-.191.131-.023a.5.5,0,0,0,.3-.142A.784.784,0,0,0,368.324,85.735Z" fill="#fff"/><path d="M372.68,86.212a1.159,1.159,0,0,1-.338-.855,2.59,2.59,0,0,1,.027-.282,2.37,2.37,0,0,1,.067-.3,3.061,3.061,0,0,1,.9-1.423,1.975,1.975,0,0,1,1.316-.61,1.138,1.138,0,0,1,1.2,1.19,1.786,1.786,0,0,1-.026.285,2.767,2.767,0,0,1-.064.3,3.04,3.04,0,0,1-.906,1.419,1.958,1.958,0,0,1-1.307.606A1.182,1.182,0,0,1,372.68,86.212Zm1.713-.392a3.565,3.565,0,0,0,.6-1.241,4.611,4.611,0,0,0,.111-.471,2.364,2.364,0,0,0,.04-.4.868.868,0,0,0-.151-.529.5.5,0,0,0-.416-.189,1.045,1.045,0,0,0-.775.471,3.707,3.707,0,0,0-.6,1.247c-.045.162-.08.319-.107.468a2.318,2.318,0,0,0-.039.39.845.845,0,0,0,.148.529.5.5,0,0,0,.418.19A1.038,1.038,0,0,0,374.393,85.82Z" fill="#fff"/><path d="M377.049,83.522a.354.354,0,0,0-.016-.313.41.41,0,0,0-.314-.094l-.157,0,.042-.157.617-.109.621-.109-.4,1.479q.177-.31.368-.591.6-.883,1-.884a.358.358,0,0,1,.326.181.518.518,0,0,1,.045.425.377.377,0,0,1-.131.2.334.334,0,0,1-.207.078.364.364,0,0,1-.162-.039.3.3,0,0,1-.119-.1c-.057-.09-.1-.135-.127-.135q-.221,0-.637.712a7.692,7.692,0,0,0-.682,1.546l-.25.831h-.609Z" fill="#fff"/><path d="M380.3,86.543a1.039,1.039,0,0,1-.785-.314,1.085,1.085,0,0,1-.3-.8V85.41a1.646,1.646,0,0,1,.037-.362,3.076,3.076,0,0,1,.1-.395,3.148,3.148,0,0,1,.9-1.359,1.922,1.922,0,0,1,1.265-.554.932.932,0,0,1,.565.153.507.507,0,0,1,.2.427,1.292,1.292,0,0,1-.631,1.045,3.625,3.625,0,0,1-1.65.588l-.016,0-.021.1a1.62,1.62,0,0,0-.043.356.667.667,0,0,0,.193.518.8.8,0,0,0,.562.178,1.122,1.122,0,0,0,.514-.144,2.326,2.326,0,0,0,.545-.407l.113.121a3.018,3.018,0,0,1-.775.631A1.625,1.625,0,0,1,380.3,86.543ZM381.439,83a1,1,0,0,0-.724.449,3.716,3.716,0,0,0-.621,1.186l-.028.072.036,0a1.986,1.986,0,0,0,1.078-.528,1.255,1.255,0,0,0,.5-.9.3.3,0,0,0-.063-.2A.211.211,0,0,0,381.439,83Z" fill="#fff"/><path d="M384.873,83.863a1.177,1.177,0,0,0-.215-.648.569.569,0,0,0-.463-.239.433.433,0,0,0-.291.1.442.442,0,0,0-.146.274.666.666,0,0,0,.058.4,3.421,3.421,0,0,0,.375.6,3.486,3.486,0,0,1,.442.737.978.978,0,0,1,.064.345,1.052,1.052,0,0,1-.023.213,1.066,1.066,0,0,1-.4.651,1.2,1.2,0,0,1-.756.243,2,2,0,0,1-.707-.119.188.188,0,0,0-.137-.007.244.244,0,0,0-.115.1l-.018.029h-.125l.162-1.291.151.023a1.536,1.536,0,0,0,.261.769.629.629,0,0,0,.524.271.551.551,0,0,0,.361-.135.579.579,0,0,0,.2-.329.764.764,0,0,0-.053-.449,3.2,3.2,0,0,0-.378-.621,3.337,3.337,0,0,1-.42-.723,1.163,1.163,0,0,1-.086-.408l.015-.143a.94.94,0,0,1,.328-.555.918.918,0,0,1,.608-.212,1.5,1.5,0,0,1,.58.112.338.338,0,0,0,.211.014.345.345,0,0,0,.18-.115l.009-.011h.117l-.166,1.145Z" fill="#fff"/><path d="M385.51,85.86l.742-2.712h-.588l.049-.184a2.309,2.309,0,0,0,.691-.318,3.5,3.5,0,0,0,.67-.662h.129l-.236.861h.588l-.082.3h-.588l-.731,2.667a.507.507,0,0,0-.025.219.084.084,0,0,0,.088.072c.045,0,.125-.057.236-.17a4.468,4.468,0,0,0,.379-.45l.139.082a2.785,2.785,0,0,1-.545.7.881.881,0,0,1-.545.278.38.38,0,0,1-.36-.186A.683.683,0,0,1,385.51,85.86Z" fill="#fff"/><path d="M388.312,86.543a.71.71,0,0,1-.57-.265,1.031,1.031,0,0,1-.222-.685,2.979,2.979,0,0,1,.769-1.926,2.137,2.137,0,0,1,1.6-.927.6.6,0,0,1,.562.341l.016.026.07-.262h.586l-.775,2.827A1.024,1.024,0,0,0,390.3,86c.008.074.039.111.094.111.033,0,.1-.054.213-.161s.234-.248.378-.423l.127.124a2.61,2.61,0,0,1-.56.636.912.912,0,0,1-.539.253.3.3,0,0,1-.3-.2.877.877,0,0,1,.016-.539l.1-.381a3.72,3.72,0,0,1-.266.36A1.7,1.7,0,0,1,388.312,86.543ZM389.879,83q-.528,0-1.092.839a2.947,2.947,0,0,0-.562,1.635.87.87,0,0,0,.113.485.365.365,0,0,0,.324.17c.293,0,.584-.207.877-.62a5.255,5.255,0,0,0,.715-1.633.914.914,0,0,0-.016-.615A.372.372,0,0,0,389.879,83Z" fill="#fff"/><path d="M394.2,85.683a2.62,2.62,0,0,1-.715.629,1.513,1.513,0,0,1-.759.231,1.116,1.116,0,0,1-.858-.341,1.3,1.3,0,0,1-.318-.923,2.553,2.553,0,0,1,.7-1.739,2.05,2.05,0,0,1,1.541-.8,1.008,1.008,0,0,1,.623.181.558.558,0,0,1,.242.466.4.4,0,0,1-.105.283.338.338,0,0,1-.258.115.305.305,0,0,1-.262-.115.3.3,0,0,1-.039-.279.564.564,0,0,1,.09-.18.2.2,0,0,0,.045-.091c0-.029,0-.048-.022-.058a.8.8,0,0,0-.338-.067,1.28,1.28,0,0,0-1.041.686,2.772,2.772,0,0,0-.457,1.568,1.155,1.155,0,0,0,.192.709.634.634,0,0,0,.537.256.978.978,0,0,0,.5-.168,2.346,2.346,0,0,0,.537-.467Z" fill="#fff"/><path d="M394.979,85.572l.56-2.05a.27.27,0,0,0-.307-.407l-.15,0,.041-.157.629-.109.633-.109-.789,2.891a1.275,1.275,0,0,0-.061.365c.006.081.035.122.09.122a.4.4,0,0,0,.262-.122,2.608,2.608,0,0,0,.342-.42l.13.089a2.648,2.648,0,0,1-.527.655.8.8,0,0,1-.51.227.371.371,0,0,1-.379-.261.686.686,0,0,1-.037-.254A1.688,1.688,0,0,1,394.979,85.572Zm1.3-4.449a.377.377,0,0,1,.285.125.464.464,0,0,1,0,.618.39.39,0,0,1-.572,0,.467.467,0,0,1,0-.618A.38.38,0,0,1,396.283,81.123Z" fill="#fff"/><path d="M397.277,86.212a1.163,1.163,0,0,1-.338-.855,2.554,2.554,0,0,1,.094-.584,3.055,3.055,0,0,1,.9-1.423,1.973,1.973,0,0,1,1.316-.61,1.138,1.138,0,0,1,1.2,1.19,1.9,1.9,0,0,1-.025.285,2.759,2.759,0,0,1-.065.3,3.04,3.04,0,0,1-.906,1.419,1.956,1.956,0,0,1-1.306.606A1.186,1.186,0,0,1,397.277,86.212Zm1.713-.392a3.582,3.582,0,0,0,.6-1.241,4.61,4.61,0,0,0,.111-.471,2.353,2.353,0,0,0,.039-.4.875.875,0,0,0-.15-.529.5.5,0,0,0-.416-.189,1.047,1.047,0,0,0-.776.471,3.688,3.688,0,0,0-.6,1.247c-.045.162-.08.319-.108.468a2.425,2.425,0,0,0-.039.39.845.845,0,0,0,.149.529.5.5,0,0,0,.418.19A1.038,1.038,0,0,0,398.99,85.82Zm-.209-3.536.975-1.049a.254.254,0,0,1,.051-.053.424.424,0,0,1,.252-.1.246.246,0,0,1,.209.087.252.252,0,0,1,.056.158l-.008.067a.427.427,0,0,1-.15.225l-.055.041-1.213.763Z" fill="#fff"/><path d="M401.463,83.522a.354.354,0,0,0-.016-.313.408.408,0,0,0-.312-.094l-.158,0,.043-.157.638-.109.641-.109-.428,1.561a7.3,7.3,0,0,1,.533-.745c.451-.541.844-.812,1.174-.812a.463.463,0,0,1,.453.265.951.951,0,0,1,.016.685l-.582,2.124a.588.588,0,0,0-.028.225.081.081,0,0,0,.084.075c.043,0,.12-.054.231-.161a4.517,4.517,0,0,0,.373-.423l.131.09a2.694,2.694,0,0,1-.541.66.877.877,0,0,1-.529.263.365.365,0,0,1-.352-.184.682.682,0,0,1-.014-.5l.621-2.263a.5.5,0,0,0,.014-.306.168.168,0,0,0-.176-.106q-.348,0-.881.7a5.634,5.634,0,0,0-.822,1.542l-.277,1.015h-.633Z" fill="#fff"/></g></svg>