<svg xmlns="http://www.w3.org/2000/svg" width="95.936" height="129.261" viewBox="0 0 95.936 129.261"><g transform="translate(-66 0.001)"><path d="M233.223,181.345a2.525,2.525,0,0,0,2.525-2.525v-3.045a7.576,7.576,0,0,0-2.482-14.733,2.525,2.525,0,0,1-.025-5.049h.018A4.058,4.058,0,0,1,236,157.312a2.525,2.525,0,0,0,3.512-3.628,9.723,9.723,0,0,0-3.761-2.336v-2.823a2.525,2.525,0,1,0-5.049,0v2.87a7.572,7.572,0,0,0,2.568,14.7,2.525,2.525,0,0,1,0,5.049h-.023a4.519,4.519,0,0,1-3.256-1.907,2.525,2.525,0,1,0-3.869,3.244,10.46,10.46,0,0,0,4.578,3.276v3.067A2.524,2.524,0,0,0,233.223,181.345Z" transform="translate(-119.255 -109.141)" fill="#deb83d"/><path d="M78.623,129.26a12.622,12.622,0,0,0,2.851-24.918,7.587,7.587,0,0,1,7.248-5.378h15.148a12.556,12.556,0,0,0,7.574-2.531v7.834a12.623,12.623,0,1,0,5.049,0V96.434a12.556,12.556,0,0,0,7.574,2.531h15.148a7.587,7.587,0,0,1,7.248,5.378,12.623,12.623,0,1,0,5.16-.113,12.642,12.642,0,0,0-12.408-10.314H124.066a7.582,7.582,0,0,1-7.574-7.574V82.185a27.616,27.616,0,0,0,6.463-1.37,2.525,2.525,0,0,0-1.633-4.778,22.695,22.695,0,1,1,14.151-14.151,2.525,2.525,0,0,0,4.778,1.633,27.79,27.79,0,0,0-23.759-36.643V8.619l5.789,5.789a2.525,2.525,0,0,0,3.571-3.571l-10.1-10.1a2.525,2.525,0,0,0-3.571,0l-10.1,10.1a2.525,2.525,0,0,0,3.571,3.571l5.788-5.789V26.876a27.77,27.77,0,0,0,0,55.31v4.155a7.582,7.582,0,0,1-7.574,7.574H88.722a12.642,12.642,0,0,0-12.408,10.314,12.622,12.622,0,0,0,2.309,25.031Zm70.689-20.2a7.574,7.574,0,1,1-7.574,7.574A7.582,7.582,0,0,1,149.312,109.063Zm-35.345,0a7.574,7.574,0,1,1-7.574,7.574A7.582,7.582,0,0,1,113.968,109.063Zm-35.345,0a7.574,7.574,0,1,1-7.574,7.574A7.582,7.582,0,0,1,78.623,109.063Z" fill="#deb83d"/><ellipse cx="2.5" cy="2" rx="2.5" ry="2" transform="translate(128.935 70.259)" fill="#deb83d"/></g></svg>