<svg xmlns="http://www.w3.org/2000/svg" width="102.695" height="102.694" viewBox="0 0 102.695 102.694"><g transform="translate(0 0)"><path d="M101.038,99.381H26.5V26.5h18.22v4.969H36.44a1.656,1.656,0,0,0-1.656,1.656V76.192a1.656,1.656,0,0,0,1.656,1.656H94.412a1.656,1.656,0,0,0,1.656-1.656V33.127a1.656,1.656,0,0,0-1.656-1.656H86.131V26.5H99.381a1.656,1.656,0,0,0,1.64-1.421l1.656-11.594a1.657,1.657,0,0,0-1.64-1.892H26.5V1.656A1.656,1.656,0,0,0,24.61.017L13.015,1.673a1.656,1.656,0,0,0-1.421,1.639v8.282H1.656A1.656,1.656,0,0,0,0,13.251V24.845A1.656,1.656,0,0,0,1.656,26.5h9.938v72.88H1.656a1.656,1.656,0,0,0,0,3.313h99.381a1.656,1.656,0,1,0,0-3.313Zm-8.282-64.6V74.536H38.1V34.783Zm-9.938-3.313H48.034V26.5H82.818Zm16.31-16.564-1.183,8.282H26.5V14.907ZM3.313,23.189V14.907h8.282v8.282ZM14.907,4.749l8.282-1.182V99.381H14.907Zm0,0" transform="translate(0 0)" fill="#2b233a"/><path d="M217.656,205.251a1.656,1.656,0,0,0,1.656-1.656v-3.313h3.313a1.656,1.656,0,0,0,0-3.313h-3.313v-1.656h3.313a1.656,1.656,0,0,0,0-3.313h-4.969A1.656,1.656,0,0,0,216,193.656v9.938A1.656,1.656,0,0,0,217.656,205.251Zm0,0" transform="translate(-171.278 -152.248)" fill="#2b233a"/><path d="M273.656,205.251h4.969a1.656,1.656,0,0,0,1.656-1.656v-9.938A1.656,1.656,0,0,0,278.625,192h-4.969A1.656,1.656,0,0,0,272,193.656v9.938A1.656,1.656,0,0,0,273.656,205.251Zm1.656-9.938h1.656v6.625h-1.656Zm0,0" transform="translate(-215.684 -152.248)" fill="#2b233a"/><path d="M329.656,205.251a1.656,1.656,0,0,0,1.656-1.656v-1.987l1.935,2.9A1.657,1.657,0,0,0,336,202.67l-1.6-2.388h.218a1.656,1.656,0,0,0,1.656-1.656v-4.969A1.656,1.656,0,0,0,334.625,192h-4.969A1.656,1.656,0,0,0,328,193.656v9.938A1.656,1.656,0,0,0,329.656,205.251Zm1.656-9.938h1.656v1.656h-1.656Zm0,0" transform="translate(-260.089 -152.248)" fill="#2b233a"/><path d="M217.656,281.938a1.656,1.656,0,1,0,0,3.313h4.969a1.656,1.656,0,0,0,1.656-1.656v-4.969a1.656,1.656,0,0,0-1.656-1.656h-3.313v-1.656h3.313a1.656,1.656,0,0,0,0-3.313h-4.969A1.656,1.656,0,0,0,216,273.656v4.969a1.656,1.656,0,0,0,1.656,1.656h3.313v1.656Zm0,0" transform="translate(-171.278 -215.684)" fill="#2b233a"/><path d="M273.656,285.251a1.656,1.656,0,0,0,1.656-1.656v-3.313h1.656v3.313a1.656,1.656,0,1,0,3.313,0v-9.938A1.656,1.656,0,0,0,278.625,272h-4.969A1.656,1.656,0,0,0,272,273.656v9.938A1.656,1.656,0,0,0,273.656,285.251Zm1.656-9.938h1.656v1.656h-1.656Zm0,0" transform="translate(-215.684 -215.684)" fill="#2b233a"/><path d="M329.656,285.251h4.969a1.656,1.656,0,0,0,0-3.313h-3.313v-8.282a1.656,1.656,0,1,0-3.313,0v9.938A1.656,1.656,0,0,0,329.656,285.251Zm0,0" transform="translate(-260.089 -215.684)" fill="#2b233a"/><path d="M377.656,285.251h4.969a1.656,1.656,0,0,0,0-3.313h-3.313v-1.656h3.313a1.656,1.656,0,0,0,0-3.313h-3.313v-1.656h3.313a1.656,1.656,0,0,0,0-3.313h-4.969A1.656,1.656,0,0,0,376,273.656v9.938A1.656,1.656,0,0,0,377.656,285.251Zm0,0" transform="translate(-298.151 -215.684)" fill="#2b233a"/></g></svg>