<svg xmlns="http://www.w3.org/2000/svg" width="108.151" height="97.044" viewBox="0 0 108.151 97.044"><g transform="translate(0 -26.29)"><g transform="translate(0 26.29)"><path d="M107.91,67.776,89.56,38.416a1.585,1.585,0,0,0-.842-.663L54.576,26.372a1.584,1.584,0,0,0-1,0L19.433,37.752a1.585,1.585,0,0,0-.842.663L.241,67.776a1.584,1.584,0,0,0,.5,2.183l5.788,3.618v46.589H4.582a1.584,1.584,0,0,0,0,3.168h98.987a1.584,1.584,0,0,0,0-3.168h-1.951V73.577l5.788-3.618A1.584,1.584,0,0,0,107.91,67.776Zm-70.67,52.39,16.836-14.03,16.836,14.03Zm-2.791-1.8V89.78L51.6,104.074Zm39.254,0L56.55,104.074l7.025-5.854a1.584,1.584,0,0,0-2.028-2.434l-7.471,6.226L37.239,87.982H70.911L67.2,91.073a1.584,1.584,0,0,0,2.028,2.434L73.7,89.78Zm1.575-33.554H30.913v-3.9H77.238v3.9h-1.96Zm25.8-14.634L84.911,44.319a1.583,1.583,0,0,0-.842-.663L54.576,33.825a1.584,1.584,0,0,0-1,0L34.131,40.306a1.584,1.584,0,0,0,1,3.006L54.075,37l28.451,9.483L98.449,71.957v48.209H76.871V87.982h1.951A1.584,1.584,0,0,0,80.406,86.4V79.327a1.584,1.584,0,0,0-1.584-1.584H29.329a1.584,1.584,0,0,0-1.584,1.584V86.4a1.584,1.584,0,0,0,1.584,1.584h1.951v32.184H9.7V71.957L25.624,46.482l3.013-1a1.584,1.584,0,0,0-1-3.006l-3.554,1.185a1.584,1.584,0,0,0-.842.663L7.076,70.18,3.767,68.111,20.975,40.578l33.1-11.034,33.1,11.034,17.208,27.534Z" transform="translate(0 -26.29)" fill="#deb83d"/></g><g transform="translate(40.118 47.693)"><path d="M216.255,127.616H191.508a1.584,1.584,0,0,0-1.584,1.584v21.211A1.584,1.584,0,0,0,191.508,152h24.747a1.584,1.584,0,0,0,1.584-1.584V129.2A1.584,1.584,0,0,0,216.255,127.616Zm-1.584,21.211h-9.2V136.271a1.584,1.584,0,1,0-3.168,0v12.557h-9.2V130.784h21.578Z" transform="translate(-189.924 -127.616)" fill="#deb83d"/></g></g></svg>