<svg xmlns="http://www.w3.org/2000/svg" width="379.786" height="116.351" viewBox="0 0 379.786 116.351"><g transform="translate(-407 -940)"><g transform="translate(407 940)"><path d="M107.969,370.157a48.67,48.67,0,0,1,48.557,45.433c.065-1.061.11-2.129.11-3.207a51.28,51.28,0,1,0-85.752,37.964,48.665,48.665,0,0,1,37.084-80.19Z" transform="translate(-47.745 -343.285)" fill="#d7a635"/><path d="M104.2,349.661c32.812.425,59.071,26.981,58.653,59.315-.006.43-.019.858-.033,1.286a57.976,57.976,0,0,0,1.712-13.276c.418-32.333-25.84-58.889-58.653-59.314-32.372-.419-59.026,24.761-60.131,56.491A59.257,59.257,0,0,1,104.2,349.661Z" transform="translate(-45.748 -337.666)" fill="#18162e"/><path d="M118.857,459.091c-23,0-41.642-18.323-41.642-40.924a40.283,40.283,0,0,1,8.808-25.155,43.1,43.1,0,1,0,72.253,38.339A41.6,41.6,0,0,1,118.857,459.091Z" transform="translate(-52.203 -350.935)" fill="#0c3424"/><g transform="translate(37.978 53.473)"><path d="M117.552,433.847a15.653,15.653,0,0,1-4.682,2.123,21.464,21.464,0,0,1-4.932.437A12.944,12.944,0,0,1,99.26,433.6a10.2,10.2,0,0,1-3.558-8.24,16.9,16.9,0,0,1,4.994-12.112,15.92,15.92,0,0,1,11.861-5.182,15.308,15.308,0,0,1,3.934.687,14.867,14.867,0,0,0,3.433.687A3.006,3.006,0,0,0,122.109,408l.936.25-2.122,8.366-1-.125q-.749-6.742-7.241-6.742-5.5,0-9.052,5.806a20.105,20.105,0,0,0-3.122,10.862,8.409,8.409,0,0,0,2.06,5.962,7.534,7.534,0,0,0,5.806,2.215,6.7,6.7,0,0,0,4.027-.967,6.211,6.211,0,0,0,1.9-3.652q1.123-4.931,1.124-5.43,0-.811-1.249-1.062-.936-.124-1.935-.249V422.3h11.3v.937a5.217,5.217,0,0,0-2.872.749q-.936.749-1.873,4.745Q117.614,433.6,117.552,433.847Z" transform="translate(-95.702 -408.002)" fill="#18162e"/><path d="M153.121,435.9H131.832v-.937a4.452,4.452,0,0,0,2.56-1.123,8.686,8.686,0,0,0,1.061-2.684l5.057-18.23a6.161,6.161,0,0,0,.187-1.5,1.433,1.433,0,0,0-1.124-1.436,14.018,14.018,0,0,0-2.06-.25v-1h11.612v1a6.213,6.213,0,0,0-2.935.812,4.376,4.376,0,0,0-1.374,2.5q-5.307,19.354-5.307,19.665,0,1.437,2.81,1.436,5.492,0,7.428-.874,2.436-1.124,4.682-5.37l1.061.374Z" transform="translate(-104.364 -408.179)" fill="#18162e"/></g><path d="M244.061,401.612a5.139,5.139,0,0,0-2.75.717q-.877.718-1.833,4.663-1.2,4.823-1.235,4.9a14.9,14.9,0,0,1-4.424,2.033,20.079,20.079,0,0,1-4.742.438,12.536,12.536,0,0,1-8.329-2.67,9.79,9.79,0,0,1-3.388-7.89,16.238,16.238,0,0,1,4.8-11.638,15.325,15.325,0,0,1,11.418-4.982,14.551,14.551,0,0,1,3.925.678,14.079,14.079,0,0,0,3.168.677,2.918,2.918,0,0,0,2.193-1.4l.638.2L241.55,395.2l-.757-.119a14.878,14.878,0,0,0-.359-2.193,5.693,5.693,0,0,0-2.67-3.268,7.822,7.822,0,0,0-4.105-1.076q-5.38,0-8.887,5.659a19.864,19.864,0,0,0-3.03,10.64,8.135,8.135,0,0,0,1.993,5.818,7.441,7.441,0,0,0,5.738,2.232,6.65,6.65,0,0,0,4.026-.976,6.119,6.119,0,0,0,1.873-3.607q.358-1.315.677-2.63a11.588,11.588,0,0,0,.438-2.67q0-.837-1.2-1.156-.918-.119-1.873-.239v-.637h10.64Z" transform="translate(-86.892 -349.529)" fill="#18162e"/><path d="M262.888,407.823l2.431,6.5a2.152,2.152,0,0,0,2.112,1.635v.636h-4.025l-3.268-8.488-1.514-.159-1.594,6.176a4.043,4.043,0,0,0-.159,1q0,.6,1.793.877v.6h-6.656v-.6a4.5,4.5,0,0,0,1.535-.558A3.923,3.923,0,0,0,254.16,414l3.148-11.318a6.92,6.92,0,0,0,.359-1.793q0-.877-1.873-1v-.639h6.855a6.893,6.893,0,0,1,3.587.837,3.264,3.264,0,0,1,1.753,3.03Q267.989,406.747,262.888,407.823Zm-1-7.572a1.556,1.556,0,0,0-1.016.239,48.124,48.124,0,0,0-1.893,6.3,8,8,0,0,0,1.4.119q4.622,0,4.623-3.785Q265,400.25,261.892,400.251Z" transform="translate(-95.199 -352.432)" fill="#18162e"/><path d="M283.186,417.068a7.008,7.008,0,0,1-3.946-1.076,3.87,3.87,0,0,1-1.913-3.427,24.389,24.389,0,0,1,1.035-5.341q.717-2.39,1.435-4.822a6.2,6.2,0,0,0,.278-1.553q0-.838-2.072-.956v-.639h7.372v.639a3.392,3.392,0,0,0-1.913.6,4.987,4.987,0,0,0-.877,1.953l-1.594,5.659a22.751,22.751,0,0,0-1.036,4.782,2.518,2.518,0,0,0,1.156,2.192,4.232,4.232,0,0,0,2.471.718q3.865,0,5.221-4.9l1.832-6.7a21.129,21.129,0,0,0,.757-3.268q0-1.035-1.872-1.035v-.639h5.459v.6a3.382,3.382,0,0,0-1.474.6,3.2,3.2,0,0,0-.719,1.4l-2.748,9.485Q288.366,417.068,283.186,417.068Z" transform="translate(-101.269 -352.432)" fill="#18162e"/><path d="M307.479,408.62a9.331,9.331,0,0,1-1.913-.2q-.479,1.635-1,3.309a15.89,15.89,0,0,0-.718,3.147.9.9,0,0,0,.6.917,8.744,8.744,0,0,0,1.235.2v.6h-6.657v-.6a8.6,8.6,0,0,0,1.436-.439,2.248,2.248,0,0,0,.677-1.355l3.147-11.278a10.48,10.48,0,0,0,.439-2.072q0-.838-1.914-.956v-.639h7.054a6.779,6.779,0,0,1,3.588.877,3.535,3.535,0,0,1,1.633,3.148,4.513,4.513,0,0,1-2.511,4.264A10.529,10.529,0,0,1,307.479,408.62Zm1.2-8.369a.966.966,0,0,0-1,.737c-.16.492-.306.975-.438,1.454l-1.356,4.863a9.02,9.02,0,0,0,1.474.119q4.823,0,4.823-4.1a2.843,2.843,0,0,0-.916-2.431A4.071,4.071,0,0,0,308.674,400.251Z" transform="translate(-106.472 -352.432)" fill="#18162e"/><path d="M328.32,416.968a5.425,5.425,0,0,1-4.343-1.913,6.854,6.854,0,0,1-1.514-4.583,11.743,11.743,0,0,1,3.368-7.851q3.368-3.785,7.393-3.786a6.013,6.013,0,0,1,4.563,1.733,6.454,6.454,0,0,1,1.654,4.644,11.68,11.68,0,0,1-3.408,8.049A10.261,10.261,0,0,1,328.32,416.968Zm4.783-17.1q-3.348,0-5.659,4.543a16.213,16.213,0,0,0-1.993,7.533q0,3.945,3.268,3.945,3.348,0,5.7-4.464a16.039,16.039,0,0,0,2.033-7.571Q336.451,399.871,333.1,399.871Z" transform="translate(-112.09 -352.331)" fill="#18162e"/><path d="M380.848,406.717l-2.272,7.133H358.212v-.636a4.036,4.036,0,0,0,2.511-1.117,10.593,10.593,0,0,0,1-2.63l4.9-17.694a5.454,5.454,0,0,0,.2-1.476,1.5,1.5,0,0,0-1.077-1.514,10.531,10.531,0,0,0-2.033-.279v-.678h10.96v.678a5.691,5.691,0,0,0-2.79.836,4.656,4.656,0,0,0-1.356,2.471l-5.1,18.493a2.157,2.157,0,0,0-.078.6q0,1.594,3.027,1.594a24.882,24.882,0,0,0,5.739-.478,7.8,7.8,0,0,0,4.582-3.148q.281-.438,1.356-2.431Z" transform="translate(-120.661 -349.692)" fill="#18162e"/><path d="M401.435,416.914q-1.634,0-1.635-1.555a21.618,21.618,0,0,1,.8-4.263q-2.989,3.626-3.309,3.944a6.719,6.719,0,0,1-4.663,1.953,3.522,3.522,0,0,1-2.949-1.394,5.173,5.173,0,0,1-.956-3.189,14.244,14.244,0,0,1,3.467-8.768q3.706-4.7,7.931-4.7a3.113,3.113,0,0,1,3.147,2.072l.4-1.714q1.435-.239,2.551-.359l.358.12-2.67,10.321q-1.115,4.385-1.116,4.823c0,.4.172.6.518.6q.479,0,1.714-1.235.717-.756,1.475-1.515l.518.479a36.174,36.174,0,0,1-2.431,2.79A4.775,4.775,0,0,1,401.435,416.914ZM400,399.936q-2.949,0-5.539,4.862a16.49,16.49,0,0,0-2.312,7.572,2.6,2.6,0,0,0,.677,1.794,2.2,2.2,0,0,0,1.714.757q2.989,0,5.621-4.9a16.392,16.392,0,0,0,2.35-7.652A2.184,2.184,0,0,0,400,399.936Z" transform="translate(-127.976 -352.357)" fill="#18162e"/><path d="M424.449,407.823l2.43,6.5a2.151,2.151,0,0,0,2.111,1.635v.636h-4.024L421.7,408.1l-1.515-.159-1.593,6.176a3.985,3.985,0,0,0-.16,1q0,.6,1.793.877v.6h-6.655v-.6a4.5,4.5,0,0,0,1.534-.558,3.937,3.937,0,0,0,.617-1.435l3.15-11.318a6.944,6.944,0,0,0,.358-1.793q0-.877-1.873-1v-.639h6.854a6.9,6.9,0,0,1,3.588.837,3.263,3.263,0,0,1,1.752,3.03Q429.549,406.747,424.449,407.823Zm-1-7.572a1.553,1.553,0,0,0-1.016.239,47.829,47.829,0,0,0-1.893,6.3,7.993,7.993,0,0,0,1.394.119q4.622,0,4.624-3.785Q426.562,400.25,423.452,400.251Z" transform="translate(-133.933 -352.432)" fill="#18162e"/><path d="M445.785,407.823l2.43,6.5a2.151,2.151,0,0,0,2.111,1.635v.636H446.3l-3.268-8.488-1.515-.159-1.593,6.176a3.985,3.985,0,0,0-.16,1q0,.6,1.793.877v.6h-6.655v-.6a4.513,4.513,0,0,0,1.534-.558,3.938,3.938,0,0,0,.617-1.435l3.148-11.318a6.962,6.962,0,0,0,.36-1.793q0-.877-1.873-1v-.639h6.854a6.889,6.889,0,0,1,3.586.837,3.264,3.264,0,0,1,1.754,3.03Q450.885,406.747,445.785,407.823Zm-1-7.572a1.553,1.553,0,0,0-1.016.239,47.954,47.954,0,0,0-1.895,6.3,8.024,8.024,0,0,0,1.4.119q4.622,0,4.622-3.785Q447.9,400.25,444.788,400.251Z" transform="translate(-139.048 -352.432)" fill="#18162e"/><path d="M470.316,416.914q-1.634,0-1.633-1.555a21.514,21.514,0,0,1,.8-4.263q-2.99,3.626-3.307,3.944a6.727,6.727,0,0,1-4.664,1.953,3.522,3.522,0,0,1-2.949-1.394,5.169,5.169,0,0,1-.956-3.189,14.255,14.255,0,0,1,3.467-8.768q3.706-4.7,7.931-4.7a3.114,3.114,0,0,1,3.149,2.072l.4-1.714q1.435-.239,2.551-.359l.358.12-2.67,10.321q-1.115,4.385-1.115,4.823c0,.4.171.6.517.6q.479,0,1.715-1.235.717-.756,1.474-1.515l.517.479a36.35,36.35,0,0,1-2.431,2.79A4.769,4.769,0,0,1,470.316,416.914Zm-1.435-16.978q-2.949,0-5.54,4.862a16.49,16.49,0,0,0-2.312,7.572,2.594,2.594,0,0,0,.679,1.794,2.2,2.2,0,0,0,1.714.757q2.987,0,5.618-4.9a16.39,16.39,0,0,0,2.352-7.652A2.185,2.185,0,0,0,468.881,399.936Z" transform="translate(-144.49 -352.357)" fill="#18162e"/><path d="M493.33,407.823l2.431,6.5a2.153,2.153,0,0,0,2.113,1.635v.636h-4.026l-3.267-8.488-1.516-.159-1.593,6.176a3.983,3.983,0,0,0-.16,1q0,.6,1.793.877v.6H482.45v-.6a4.484,4.484,0,0,0,1.534-.558A3.883,3.883,0,0,0,484.6,414l3.15-11.318a6.953,6.953,0,0,0,.359-1.793q0-.877-1.873-1v-.639h6.854a6.9,6.9,0,0,1,3.588.837,3.264,3.264,0,0,1,1.754,3.03Q498.432,406.747,493.33,407.823Zm-1-7.572a1.553,1.553,0,0,0-1.016.239,48.127,48.127,0,0,0-1.893,6.3,8.011,8.011,0,0,0,1.4.119q4.622,0,4.622-3.785Q495.443,400.25,492.333,400.251Z" transform="translate(-150.447 -352.432)" fill="#18162e"/><path d="M520.371,403.758l-.639-.08c.053-.8.08-1.221.08-1.276a1.763,1.763,0,0,0-1.355-1.872,12.144,12.144,0,0,0-2.589-.159l-3.746,13.43a4.279,4.279,0,0,0-.2,1.2c0,.5.3.81.916.916q.717.04,1.475.08v.6h-7.85v-.6a6.4,6.4,0,0,0,1.832-.439,2.419,2.419,0,0,0,1-1.514l3.667-13.669h-.079a9.6,9.6,0,0,0-3.627.438,5.911,5.911,0,0,0-2.271,2.829l-.678-.2,1.156-4.185h14.148Z" transform="translate(-156.166 -352.432)" fill="#18162e"/><path d="M529.037,409.142a10.571,10.571,0,0,0-.36,2.392,3.278,3.278,0,0,0,1.077,2.611,4.092,4.092,0,0,0,2.789.936q2.512,0,5.739-3.03l.518.6q-3.547,4.264-8.25,4.263a5.069,5.069,0,0,1-3.806-1.455,5.281,5.281,0,0,1-1.415-3.846,12.572,12.572,0,0,1,3.747-8.608q3.746-4.064,8.249-4.065a3.74,3.74,0,0,1,2.253.677,2.3,2.3,0,0,1,.936,1.993,5.486,5.486,0,0,1-2.072,4.105,12.081,12.081,0,0,1-4.186,2.351A37.5,37.5,0,0,1,529.037,409.142Zm7.372-9.166q-2.151,0-4.384,3.109a18.609,18.609,0,0,0-2.63,5.1q8.37-2.112,8.369-6.815A1.216,1.216,0,0,0,536.409,399.976Z" transform="translate(-160.727 -352.357)" fill="#18162e"/><g transform="translate(130.468 67.534)"><path d="M218.67,435.9l2.044-7.044a2.536,2.536,0,0,0,.165-1.146q-.082-.307-.576-.389l-.517-.052.113-.382h3.923l-.112.382-.262.045a1.017,1.017,0,0,0-.588.281,1.707,1.707,0,0,0-.356.7l-2.044,7.045a2.482,2.482,0,0,0-.161,1.146q.086.306.573.389l.516.053-.1.382H217.36l.1-.382.262-.046a1.02,1.02,0,0,0,.591-.284A1.581,1.581,0,0,0,218.67,435.9Z" transform="translate(-217.36 -426.59)" fill="#18162e"/><path d="M226.153,432.427a.707.707,0,0,0-.03-.625.815.815,0,0,0-.627-.191l-.313-.008.082-.314,1.279-.217,1.28-.217-.854,3.122a14.4,14.4,0,0,1,1.063-1.49q1.356-1.625,2.351-1.625a.928.928,0,0,1,.906.531,1.921,1.921,0,0,1,.03,1.369l-1.163,4.248a1.108,1.108,0,0,0-.055.449.157.157,0,0,0,.168.15q.128,0,.461-.322a8.565,8.565,0,0,0,.745-.845l.262.179a5.294,5.294,0,0,1-1.082,1.321,1.752,1.752,0,0,1-1.059.527.726.726,0,0,1-.7-.37,1.351,1.351,0,0,1-.027-1l1.238-4.524a1.013,1.013,0,0,0,.03-.613.338.338,0,0,0-.352-.21q-.7,0-1.76,1.393a11.3,11.3,0,0,0-1.648,3.084l-.554,2.029h-1.266Z" transform="translate(-219.086 -427.542)" fill="#18162e"/><path d="M236.387,432.493a1.143,1.143,0,0,0-.31-.652,1.1,1.1,0,0,0-.668-.225l-.3-.007.015-.314,1.07-.225,1.077-.224a30.59,30.59,0,0,1,.647,3.62q.106,1,.144,2.265l-.008,0q.823-1.009,1.428-1.876.471-.694.927-1.5a.99.99,0,0,0,.166-.591,1.493,1.493,0,0,0-.315-.635l-.052-.067a1.045,1.045,0,0,1,0-1.02.47.47,0,0,1,.4-.176q.616,0,.769.759a2.28,2.28,0,0,1-.3,1.582q-.494.905-.988,1.645a30.305,30.305,0,0,1-2.935,3.62l-.128-.1-.135-.1a34.85,34.85,0,0,0-.187-3.789Q236.588,433.578,236.387,432.493Z" transform="translate(-221.616 -427.54)" fill="#18162e"/><path d="M246.169,438.471a2.085,2.085,0,0,1-1.572-.629,2.2,2.2,0,0,1-.6-1.609v-.03a3.413,3.413,0,0,1,.075-.722,5.7,5.7,0,0,1,.21-.791,6.227,6.227,0,0,1,1.8-2.718,3.845,3.845,0,0,1,2.53-1.108,1.839,1.839,0,0,1,1.127.307,1.008,1.008,0,0,1,.408.854,2.582,2.582,0,0,1-1.26,2.088,7.282,7.282,0,0,1-3.3,1.176l-.03.007-.045.21a3.544,3.544,0,0,0-.082.711,1.344,1.344,0,0,0,.385,1.038,1.607,1.607,0,0,0,1.126.355,2.237,2.237,0,0,0,1.024-.289,4.671,4.671,0,0,0,1.092-.813l.226.24a5.988,5.988,0,0,1-1.55,1.262A3.242,3.242,0,0,1,246.169,438.471Zm2.277-7.1a2,2,0,0,0-1.451.9,7.493,7.493,0,0,0-1.241,2.373l-.052.142.067-.007a3.976,3.976,0,0,0,2.158-1.056,2.509,2.509,0,0,0,.991-1.8.6.6,0,0,0-.123-.4A.43.43,0,0,0,248.446,431.374Z" transform="translate(-223.746 -427.544)" fill="#18162e"/><path d="M254.524,432.427a.7.7,0,0,0-.03-.625.818.818,0,0,0-.629-.191l-.314-.008.081-.314,1.236-.217,1.243-.217-.808,2.957q.35-.621.732-1.183,1.21-1.766,2-1.767a.717.717,0,0,1,.652.363,1.035,1.035,0,0,1,.087.849.719.719,0,0,1-.258.39.664.664,0,0,1-.415.157.736.736,0,0,1-.326-.079.585.585,0,0,1-.236-.191q-.172-.269-.255-.269-.442,0-1.273,1.422a15.335,15.335,0,0,0-1.363,3.091l-.5,1.663h-1.22Z" transform="translate(-225.888 -427.542)" fill="#18162e"/><path d="M265.136,433.111a2.36,2.36,0,0,0-.43-1.295,1.128,1.128,0,0,0-.925-.48.875.875,0,0,0-.58.191.907.907,0,0,0-.3.55,1.34,1.34,0,0,0,.12.809,6.778,6.778,0,0,0,.749,1.205,7.012,7.012,0,0,1,.883,1.476,1.982,1.982,0,0,1,.127.688,2.212,2.212,0,0,1-.854,1.73,2.4,2.4,0,0,1-1.512.487,4,4,0,0,1-1.416-.239.374.374,0,0,0-.273-.016.5.5,0,0,0-.228.2l-.038.059h-.246l.322-2.583.3.045a3.1,3.1,0,0,0,.524,1.539,1.263,1.263,0,0,0,1.048.543,1.107,1.107,0,0,0,.722-.27,1.143,1.143,0,0,0,.408-.658,1.512,1.512,0,0,0-.1-.9,6.279,6.279,0,0,0-.756-1.243,6.558,6.558,0,0,1-.839-1.445,2.315,2.315,0,0,1-.172-.816l.03-.284a1.891,1.891,0,0,1,.655-1.112,1.852,1.852,0,0,1,1.216-.423,2.982,2.982,0,0,1,1.161.224.655.655,0,0,0,.42.027.676.676,0,0,0,.359-.228l.022-.023h.233l-.329,2.291Z" transform="translate(-227.635 -427.544)" fill="#18162e"/><path d="M268.681,435.507l1.123-4.1a.541.541,0,0,0-.614-.815l-.3-.008.083-.314,1.257-.217,1.266-.217-1.58,5.782a2.442,2.442,0,0,0-.12.729c.011.163.07.243.18.243a.8.8,0,0,0,.524-.243,5.073,5.073,0,0,0,.681-.841l.262.179A5.286,5.286,0,0,1,270.388,437a1.576,1.576,0,0,1-1.018.455.742.742,0,0,1-.756-.523,1.329,1.329,0,0,1-.074-.509A3.478,3.478,0,0,1,268.681,435.507Zm2.609-8.9a.754.754,0,0,1,.572.251.936.936,0,0,1,0,1.235.775.775,0,0,1-1.143,0,.934.934,0,0,1,0-1.235A.752.752,0,0,1,271.29,426.61Z" transform="translate(-229.63 -426.524)" fill="#18162e"/><path d="M274.563,437.809a2.326,2.326,0,0,1-.677-1.711,4.976,4.976,0,0,1,.056-.566,4.332,4.332,0,0,1,.131-.6,6.14,6.14,0,0,1,1.8-2.845,3.945,3.945,0,0,1,2.632-1.221,2.347,2.347,0,0,1,1.73.662,2.32,2.32,0,0,1,.666,1.719,3.689,3.689,0,0,1-.052.569,5.632,5.632,0,0,1-.127.607,6.112,6.112,0,0,1-1.812,2.837,3.909,3.909,0,0,1-2.613,1.213A2.361,2.361,0,0,1,274.563,437.809Zm3.422-.786a7.074,7.074,0,0,0,1.2-2.482,8.618,8.618,0,0,0,.221-.939,4.7,4.7,0,0,0,.078-.79,1.727,1.727,0,0,0-.3-1.06.988.988,0,0,0-.832-.378,2.082,2.082,0,0,0-1.549.943,7.312,7.312,0,0,0-1.2,2.494q-.135.486-.214.936a4.594,4.594,0,0,0-.078.778,1.682,1.682,0,0,0,.3,1.059,1,1,0,0,0,.836.379A2.063,2.063,0,0,0,277.985,437.023Z" transform="translate(-230.912 -427.544)" fill="#18162e"/><path d="M285.279,432.427a.7.7,0,0,0-.03-.625.815.815,0,0,0-.627-.191l-.313-.008.083-.314,1.28-.217,1.279-.217-.853,3.122a14.172,14.172,0,0,1,1.063-1.49q1.355-1.625,2.351-1.625a.928.928,0,0,1,.906.531,1.913,1.913,0,0,1,.03,1.369l-1.162,4.248a1.127,1.127,0,0,0-.056.449.158.158,0,0,0,.169.15q.127,0,.46-.322a8.465,8.465,0,0,0,.745-.845l.262.179a5.312,5.312,0,0,1-1.082,1.321,1.755,1.755,0,0,1-1.06.527.727.727,0,0,1-.7-.37,1.352,1.352,0,0,1-.026-1l1.238-4.524a1.012,1.012,0,0,0,.03-.613.337.337,0,0,0-.351-.21q-.7,0-1.761,1.393a11.293,11.293,0,0,0-1.647,3.084l-.555,2.029h-1.265Z" transform="translate(-233.261 -427.542)" fill="#18162e"/><path d="M296.373,438.471a2.085,2.085,0,0,1-1.572-.629,2.2,2.2,0,0,1-.6-1.609v-.03a3.461,3.461,0,0,1,.075-.722,5.7,5.7,0,0,1,.21-.791,6.226,6.226,0,0,1,1.8-2.718,3.845,3.845,0,0,1,2.531-1.108,1.838,1.838,0,0,1,1.126.307,1,1,0,0,1,.408.854,2.58,2.58,0,0,1-1.26,2.088,7.278,7.278,0,0,1-3.3,1.176l-.03.007-.045.21a3.543,3.543,0,0,0-.082.711,1.344,1.344,0,0,0,.385,1.038,1.607,1.607,0,0,0,1.126.355,2.237,2.237,0,0,0,1.024-.289,4.674,4.674,0,0,0,1.092-.813l.224.24a5.959,5.959,0,0,1-1.549,1.262A3.242,3.242,0,0,1,296.373,438.471Zm2.277-7.1a2,2,0,0,0-1.451.9,7.494,7.494,0,0,0-1.241,2.373l-.052.142.067-.007a3.973,3.973,0,0,0,2.158-1.056,2.509,2.509,0,0,0,.991-1.8.6.6,0,0,0-.123-.4A.429.429,0,0,0,298.65,431.374Z" transform="translate(-235.783 -427.544)" fill="#18162e"/><path d="M307.532,433.111a2.359,2.359,0,0,0-.43-1.295,1.127,1.127,0,0,0-.925-.48.874.874,0,0,0-.58.191.91.91,0,0,0-.3.55,1.34,1.34,0,0,0,.12.809,6.9,6.9,0,0,0,.748,1.205,6.948,6.948,0,0,1,.883,1.476,1.983,1.983,0,0,1,.128.688,2.071,2.071,0,0,1-.045.427,2.123,2.123,0,0,1-.809,1.3,2.4,2.4,0,0,1-1.512.487,4,4,0,0,1-1.416-.239.373.373,0,0,0-.273-.016.5.5,0,0,0-.228.2l-.038.059h-.247l.322-2.583.3.045a3.1,3.1,0,0,0,.524,1.539,1.263,1.263,0,0,0,1.048.543,1.106,1.106,0,0,0,.722-.27,1.143,1.143,0,0,0,.408-.658,1.523,1.523,0,0,0-.1-.9,6.291,6.291,0,0,0-.756-1.243,6.517,6.517,0,0,1-.839-1.445,2.3,2.3,0,0,1-.173-.816l.03-.284a1.891,1.891,0,0,1,.655-1.112,1.852,1.852,0,0,1,1.216-.423,2.985,2.985,0,0,1,1.161.224.655.655,0,0,0,.42.027.673.673,0,0,0,.359-.228l.022-.023h.233l-.329,2.291Z" transform="translate(-237.799 -427.544)" fill="#18162e"/><path d="M319.052,438.471a2.086,2.086,0,0,1-1.572-.629,2.2,2.2,0,0,1-.6-1.609v-.03a3.406,3.406,0,0,1,.075-.722,5.8,5.8,0,0,1,.21-.791,6.226,6.226,0,0,1,1.8-2.718,3.847,3.847,0,0,1,2.531-1.108,1.834,1.834,0,0,1,1.126.307,1.006,1.006,0,0,1,.409.854,2.583,2.583,0,0,1-1.261,2.088,7.278,7.278,0,0,1-3.3,1.176l-.03.007-.045.21a3.543,3.543,0,0,0-.082.711,1.346,1.346,0,0,0,.385,1.038,1.606,1.606,0,0,0,1.126.355,2.242,2.242,0,0,0,1.025-.289,4.7,4.7,0,0,0,1.092-.813l.225.24a6,6,0,0,1-1.549,1.262A3.249,3.249,0,0,1,319.052,438.471Zm2.276-7.1a2,2,0,0,0-1.451.9,7.509,7.509,0,0,0-1.242,2.373l-.052.142.067-.007a3.973,3.973,0,0,0,2.158-1.056,2.51,2.51,0,0,0,.991-1.8.6.6,0,0,0-.124-.4A.43.43,0,0,0,321.328,431.374Z" transform="translate(-241.22 -427.544)" fill="#18162e"/><path d="M326.926,432.427a.71.71,0,0,0-.03-.625.818.818,0,0,0-.628-.191l-.313-.008.083-.314,1.28-.217,1.28-.217-.853,3.122a14.062,14.062,0,0,1,1.063-1.49q1.355-1.625,2.351-1.625a.928.928,0,0,1,.906.531,1.916,1.916,0,0,1,.03,1.369l-1.163,4.248a1.127,1.127,0,0,0-.056.449.158.158,0,0,0,.169.15q.127,0,.46-.322a8.469,8.469,0,0,0,.745-.845l.262.179a5.293,5.293,0,0,1-1.081,1.321,1.755,1.755,0,0,1-1.06.527.727.727,0,0,1-.7-.37,1.352,1.352,0,0,1-.026-1l1.238-4.524a1.018,1.018,0,0,0,.03-.613.338.338,0,0,0-.352-.21q-.7,0-1.759,1.393a11.273,11.273,0,0,0-1.648,3.084l-.555,2.029h-1.265Z" transform="translate(-243.246 -427.542)" fill="#18162e"/><path d="M346.973,437.451a4.37,4.37,0,0,1-3.151-1.175,4,4,0,0,1-1.227-3.024,6.5,6.5,0,0,1,1.917-4.65,6.024,6.024,0,0,1,4.472-1.992,6.209,6.209,0,0,1,2.359.442.92.92,0,0,0,.516.038,1.208,1.208,0,0,0,.54-.239l.238-.187.312.052-.827,3.234-.354-.06a2.593,2.593,0,0,0-.85-1.887,2.971,2.971,0,0,0-2.054-.7,3.8,3.8,0,0,0-3.148,1.9,7.735,7.735,0,0,0-1.321,4.533,2.747,2.747,0,0,0,3.013,3.032h.149a2.068,2.068,0,0,0,1.343-.344,2.782,2.782,0,0,0,.669-1.386l.321-1.25a1.413,1.413,0,0,0,.03-.887q-.128-.243-.658-.326l-.569-.052.106-.382h4.31l-.106.382-.337.044a1.373,1.373,0,0,0-.75.282,1.324,1.324,0,0,0-.375.7l-.764,2.958a7.605,7.605,0,0,1-3.81.95Z" transform="translate(-247.385 -426.524)" fill="#18162e"/><path d="M357.427,438.471a1.419,1.419,0,0,1-1.142-.531,2.059,2.059,0,0,1-.445-1.37,5.971,5.971,0,0,1,1.539-3.851,4.269,4.269,0,0,1,3.2-1.854,1.21,1.21,0,0,1,1.124.681l.03.052.141-.524h1.172l-1.55,5.654a2.048,2.048,0,0,0-.1.662c.015.147.078.22.188.22q.1,0,.423-.322t.76-.845l.254.247a5.162,5.162,0,0,1-1.122,1.271,1.805,1.805,0,0,1-1.078.509.589.589,0,0,1-.6-.4,1.743,1.743,0,0,1,.03-1.079l.21-.761a7.076,7.076,0,0,1-.531.718A3.389,3.389,0,0,1,357.427,438.471Zm3.131-7.089q-1.056,0-2.183,1.681a5.878,5.878,0,0,0-1.127,3.268,1.73,1.73,0,0,0,.229.969.735.735,0,0,0,.648.341q.876,0,1.752-1.239a10.384,10.384,0,0,0,1.431-3.268,1.829,1.829,0,0,0-.03-1.228A.751.751,0,0,0,360.559,431.382Z" transform="translate(-250.561 -427.544)" fill="#18162e"/><path d="M367.47,432.427a.713.713,0,0,0-.03-.625.818.818,0,0,0-.628-.191l-.313-.008.083-.314,1.28-.217,1.28-.217-.853,3.122a14.061,14.061,0,0,1,1.063-1.49q1.355-1.625,2.351-1.625a.926.926,0,0,1,.905.531,1.911,1.911,0,0,1,.031,1.369l-1.163,4.248a1.126,1.126,0,0,0-.056.449.157.157,0,0,0,.169.15q.127,0,.46-.322a8.465,8.465,0,0,0,.745-.845l.262.179a5.293,5.293,0,0,1-1.081,1.321,1.756,1.756,0,0,1-1.06.527.727.727,0,0,1-.7-.37,1.352,1.352,0,0,1-.026-1l1.238-4.524a1.017,1.017,0,0,0,.03-.613.338.338,0,0,0-.352-.21q-.7,0-1.759,1.393a11.273,11.273,0,0,0-1.648,3.084l-.555,2.029h-1.265Z" transform="translate(-252.966 -427.542)" fill="#18162e"/><path d="M377.517,438.471a1.419,1.419,0,0,1-1.142-.531,2.059,2.059,0,0,1-.446-1.37,5.967,5.967,0,0,1,1.539-3.851,4.269,4.269,0,0,1,3.2-1.854,1.21,1.21,0,0,1,1.124.681l.03.052.141-.524h1.172l-1.55,5.654a2.049,2.049,0,0,0-.1.662c.015.147.078.22.187.22q.1,0,.423-.322t.76-.845l.254.247a5.148,5.148,0,0,1-1.123,1.271,1.8,1.8,0,0,1-1.077.509.591.591,0,0,1-.6-.4,1.749,1.749,0,0,1,.03-1.079l.211-.761a7.08,7.08,0,0,1-.531.718A3.389,3.389,0,0,1,377.517,438.471Zm3.131-7.089q-1.056,0-2.183,1.681a5.872,5.872,0,0,0-1.127,3.268,1.73,1.73,0,0,0,.229.969.734.734,0,0,0,.648.341q.876,0,1.752-1.239a10.383,10.383,0,0,0,1.431-3.268,1.829,1.829,0,0,0-.03-1.228A.751.751,0,0,0,380.649,431.382Z" transform="translate(-255.377 -427.544)" fill="#18162e"/><path d="M387.7,437.451a1.563,1.563,0,0,1-1.25-.576,2.222,2.222,0,0,1-.486-1.483,5.739,5.739,0,0,1,1.573-3.69,4.294,4.294,0,0,1,3.116-1.857.994.994,0,0,1,1.056.741l.8-2.942c.035-.13-.027-.214-.187-.255a3.245,3.245,0,0,0-.891-.008l.008-.045.09-.307,1.258-.209,1.273-.211-2.508,9.158a1.932,1.932,0,0,0-.094.617q.019.205.169.205t.487-.325a8.959,8.959,0,0,0,.794-.864l.262.239a7.026,7.026,0,0,1-1.2,1.294,1.76,1.76,0,0,1-1,.516.738.738,0,0,1-.75-.395,1.851,1.851,0,0,1,.037-1.194l.083-.306a6.949,6.949,0,0,1-.435.553A3.116,3.116,0,0,1,387.7,437.451Zm2.926-7.089q-.981,0-2.072,1.714a6.227,6.227,0,0,0-1.084,3.257,1.677,1.677,0,0,0,.228.958.761.761,0,0,0,.669.329q.674,0,1.476-1.089a7.594,7.594,0,0,0,1.2-2.542,5.128,5.128,0,0,0,.254-1.973Q391.2,430.362,390.627,430.362Z" transform="translate(-257.783 -426.524)" fill="#18162e"/><path d="M398.653,438.471a2.085,2.085,0,0,1-1.572-.629,2.2,2.2,0,0,1-.6-1.609v-.03a3.47,3.47,0,0,1,.075-.722,5.7,5.7,0,0,1,.209-.791,6.24,6.24,0,0,1,1.8-2.718,3.848,3.848,0,0,1,2.532-1.108,1.836,1.836,0,0,1,1.126.307,1.007,1.007,0,0,1,.408.854,2.582,2.582,0,0,1-1.26,2.088,7.285,7.285,0,0,1-3.3,1.176l-.03.007-.044.21a3.491,3.491,0,0,0-.083.711,1.344,1.344,0,0,0,.385,1.038,1.6,1.6,0,0,0,1.125.355,2.237,2.237,0,0,0,1.025-.289,4.7,4.7,0,0,0,1.093-.813l.225.24a5.989,5.989,0,0,1-1.55,1.262A3.247,3.247,0,0,1,398.653,438.471Zm2.276-7.1a2,2,0,0,0-1.451.9,7.477,7.477,0,0,0-1.242,2.373l-.052.142.067-.007a3.971,3.971,0,0,0,2.158-1.056,2.507,2.507,0,0,0,.991-1.8.6.6,0,0,0-.123-.4A.431.431,0,0,0,400.929,431.374Z" transform="translate(-260.304 -427.544)" fill="#18162e"/><path d="M407.009,432.427a.707.707,0,0,0-.03-.625.819.819,0,0,0-.629-.191l-.315-.008.083-.314,1.235-.217,1.244-.217-.809,2.957q.351-.621.731-1.183,1.211-1.766,2-1.767a.717.717,0,0,1,.652.363,1.032,1.032,0,0,1,.087.849.715.715,0,0,1-.258.39.664.664,0,0,1-.415.157.738.738,0,0,1-.326-.079.585.585,0,0,1-.236-.191q-.172-.269-.255-.269-.441,0-1.273,1.422a15.333,15.333,0,0,0-1.363,3.091l-.5,1.663h-1.221Z" transform="translate(-262.446 -427.542)" fill="#18162e"/><path d="M413.365,435.48l1.124-4.1a.541.541,0,0,0-.614-.815l-.3-.008.082-.314,1.257-.217,1.265-.217-1.58,5.782a2.435,2.435,0,0,0-.119.729c.01.163.07.243.179.243a.8.8,0,0,0,.525-.243,5.073,5.073,0,0,0,.681-.841l.262.179a5.268,5.268,0,0,1-1.055,1.309,1.577,1.577,0,0,1-1.019.455.74.74,0,0,1-.756-.523,1.329,1.329,0,0,1-.074-.509A3.506,3.506,0,0,1,413.365,435.48Zm1.371-6.575,1.946-2.1a.5.5,0,0,1,.1-.1.845.845,0,0,1,.5-.206.487.487,0,0,1,.419.176.493.493,0,0,1,.112.315l-.015.135a.875.875,0,0,1-.3.449l-.112.083-2.426,1.527Z" transform="translate(-264.318 -426.497)" fill="#18162e"/><path d="M419.911,438.471a1.421,1.421,0,0,1-1.142-.531,2.063,2.063,0,0,1-.445-1.37,5.968,5.968,0,0,1,1.539-3.851,4.268,4.268,0,0,1,3.2-1.854,1.209,1.209,0,0,1,1.124.681l.03.052.142-.524h1.172l-1.55,5.654a2.005,2.005,0,0,0-.1.662c.014.147.077.22.187.22.065,0,.206-.107.423-.322s.471-.5.76-.845l.254.247a5.149,5.149,0,0,1-1.123,1.271,1.805,1.805,0,0,1-1.078.509.59.59,0,0,1-.6-.4,1.743,1.743,0,0,1,.03-1.079l.21-.761a6.967,6.967,0,0,1-.531.718A3.387,3.387,0,0,1,419.911,438.471Zm3.132-7.089q-1.056,0-2.183,1.681a5.876,5.876,0,0,0-1.127,3.268,1.724,1.724,0,0,0,.229.969.733.733,0,0,0,.647.341q.877,0,1.753-1.239a10.418,10.418,0,0,0,1.431-3.268,1.833,1.833,0,0,0-.03-1.228A.752.752,0,0,0,423.043,431.382Z" transform="translate(-265.541 -427.544)" fill="#18162e"/><path d="M433.393,441.4a.568.568,0,0,1-.22-.487.706.706,0,0,1,.183-.517.7.7,0,0,1,.521-.187.82.82,0,0,1,.433.214.83.83,0,0,0,.434.214.853.853,0,0,0,.539-.233,3.235,3.235,0,0,0,.6-.741l.15-.225.753-1.2a36.988,36.988,0,0,0-.676-3.68q-.262-1.026-.69-2.233a.966.966,0,0,0-.513-.607,2.27,2.27,0,0,0-1.059-.1v-.291l1.054-.233,1.061-.232a.413.413,0,0,1,.364.247,8.319,8.319,0,0,1,.439,1.176q.377,1.236.595,2.271.2,1,.36,2.254l.247-.426a25.7,25.7,0,0,0,1.41-2.926,1.871,1.871,0,0,0,.184-.867.627.627,0,0,0-.372-.479l-.195-.1a.535.535,0,0,1-.239-.456.705.705,0,0,1,.153-.516.628.628,0,0,1,.484-.173.8.8,0,0,1,.8.626,2.134,2.134,0,0,1-.135,1.463,28.651,28.651,0,0,1-1.579,3.474,30.678,30.678,0,0,1-1.939,3.01,7.85,7.85,0,0,1-1.359,1.543,2.039,2.039,0,0,1-1.172.6A.978.978,0,0,1,433.393,441.4Z" transform="translate(-269.101 -427.544)" fill="#18162e"/><path d="M449.974,435.9l2.044-7.044a2.338,2.338,0,0,0,.15-1.146q-.1-.307-.642-.389l-.567-.052.112-.382h7.753l-.3,1.223-.292,1.232-.366-.052.052-.6a.939.939,0,0,0-.468-.906,4.63,4.63,0,0,0-1.793-.228h-1.013a1,1,0,0,0-.6.139,1.063,1.063,0,0,0-.3.557l-.947,3.265h1.033a3.054,3.054,0,0,0,1.348-.236,1.854,1.854,0,0,0,.779-.835l.187-.374.36.067-.554,1.842-.553,1.849-.345-.09.053-.366q.1-.72-.244-.951a3.118,3.118,0,0,0-1.508-.232h-.75l-.912,3.144a2.2,2.2,0,0,0-.139,1.146q.109.306.67.389l.591.053-.1.382H448.66l.1-.382.263-.046a1.025,1.025,0,0,0,.593-.284A1.581,1.581,0,0,0,449.974,435.9Z" transform="translate(-272.814 -426.59)" fill="#18162e"/><path d="M461.632,437.809a2.325,2.325,0,0,1-.677-1.711,4.949,4.949,0,0,1,.055-.566,4.442,4.442,0,0,1,.132-.6,6.133,6.133,0,0,1,1.8-2.845,3.944,3.944,0,0,1,2.632-1.221,2.347,2.347,0,0,1,1.73.662,2.32,2.32,0,0,1,.667,1.719,3.7,3.7,0,0,1-.053.569,5.808,5.808,0,0,1-.127.607,6.107,6.107,0,0,1-1.812,2.837,3.906,3.906,0,0,1-2.612,1.213A2.359,2.359,0,0,1,461.632,437.809Zm3.423-.786a7.1,7.1,0,0,0,1.2-2.482,8.782,8.782,0,0,0,.22-.939,4.7,4.7,0,0,0,.078-.79,1.732,1.732,0,0,0-.3-1.06.988.988,0,0,0-.832-.378,2.081,2.081,0,0,0-1.549.943,7.311,7.311,0,0,0-1.2,2.494q-.135.486-.214.936a4.591,4.591,0,0,0-.078.778,1.678,1.678,0,0,0,.3,1.059,1,1,0,0,0,.836.379A2.066,2.066,0,0,0,465.055,437.023Z" transform="translate(-275.762 -427.544)" fill="#18162e"/><path d="M472.831,432.427a.707.707,0,0,0-.03-.625.818.818,0,0,0-.629-.191l-.314-.008.082-.314,1.235-.217,1.244-.217-.809,2.957q.351-.621.731-1.183,1.211-1.766,2-1.767a.717.717,0,0,1,.652.363,1.035,1.035,0,0,1,.088.849.716.716,0,0,1-.259.39.664.664,0,0,1-.415.157.738.738,0,0,1-.326-.079.582.582,0,0,1-.235-.191q-.173-.269-.255-.269-.441,0-1.273,1.422a15.335,15.335,0,0,0-1.363,3.091l-.5,1.663h-1.221Z" transform="translate(-278.227 -427.542)" fill="#18162e"/><path d="M481.207,438.471a2.087,2.087,0,0,1-1.573-.629,2.2,2.2,0,0,1-.6-1.609v-.03a3.363,3.363,0,0,1,.075-.722,5.7,5.7,0,0,1,.209-.791,6.24,6.24,0,0,1,1.8-2.718,3.848,3.848,0,0,1,2.531-1.108,1.838,1.838,0,0,1,1.127.307,1.007,1.007,0,0,1,.408.854,2.584,2.584,0,0,1-1.261,2.088,7.285,7.285,0,0,1-3.3,1.176l-.03.007-.045.21a3.545,3.545,0,0,0-.082.711,1.344,1.344,0,0,0,.385,1.038,1.6,1.6,0,0,0,1.125.355,2.239,2.239,0,0,0,1.025-.289,4.686,4.686,0,0,0,1.092-.813l.225.24a5.985,5.985,0,0,1-1.549,1.262A3.247,3.247,0,0,1,481.207,438.471Zm2.276-7.1a2,2,0,0,0-1.451.9,7.479,7.479,0,0,0-1.242,2.373l-.052.142.067-.007a3.971,3.971,0,0,0,2.158-1.056,2.51,2.51,0,0,0,.991-1.8.6.6,0,0,0-.123-.4A.432.432,0,0,0,483.483,431.374Z" transform="translate(-280.097 -427.544)" fill="#18162e"/><path d="M492.365,433.111a2.36,2.36,0,0,0-.43-1.295,1.128,1.128,0,0,0-.925-.48.874.874,0,0,0-.58.191.911.911,0,0,0-.3.55,1.34,1.34,0,0,0,.12.809,6.9,6.9,0,0,0,.748,1.205,6.945,6.945,0,0,1,.883,1.476,1.983,1.983,0,0,1,.128.688,2.073,2.073,0,0,1-.045.427,2.123,2.123,0,0,1-.809,1.3,2.4,2.4,0,0,1-1.512.487,4,4,0,0,1-1.416-.239.373.373,0,0,0-.273-.016.5.5,0,0,0-.228.2l-.037.059h-.248l.322-2.583.3.045a3.1,3.1,0,0,0,.524,1.539,1.263,1.263,0,0,0,1.048.543,1.107,1.107,0,0,0,.722-.27,1.143,1.143,0,0,0,.408-.658,1.523,1.523,0,0,0-.1-.9,6.29,6.29,0,0,0-.756-1.243,6.519,6.519,0,0,1-.839-1.445,2.3,2.3,0,0,1-.173-.816l.03-.284a1.89,1.89,0,0,1,.655-1.112,1.852,1.852,0,0,1,1.216-.423,2.985,2.985,0,0,1,1.161.224.655.655,0,0,0,.42.027.673.673,0,0,0,.359-.228l.022-.023h.233l-.329,2.291Z" transform="translate(-282.113 -427.544)" fill="#18162e"/><path d="M495.564,436.626l1.482-5.422h-1.175l.1-.366a4.643,4.643,0,0,0,1.384-.636,7.176,7.176,0,0,0,1.34-1.325h.255l-.471,1.722h1.175l-.165.606h-1.175l-1.46,5.332a.955.955,0,0,0-.049.437.166.166,0,0,0,.176.147c.09,0,.247-.114.471-.341a8.735,8.735,0,0,0,.756-.9l.277.164a5.487,5.487,0,0,1-1.089,1.4,1.757,1.757,0,0,1-1.089.557.757.757,0,0,1-.719-.373A1.355,1.355,0,0,1,495.564,436.626Z" transform="translate(-284.04 -427.067)" fill="#18162e"/><path d="M502.466,438.471a1.419,1.419,0,0,1-1.142-.531,2.059,2.059,0,0,1-.445-1.37,5.971,5.971,0,0,1,1.539-3.851,4.269,4.269,0,0,1,3.2-1.854,1.21,1.21,0,0,1,1.124.681l.03.052.142-.524h1.172l-1.551,5.654a2.02,2.02,0,0,0-.1.662c.014.147.077.22.187.22q.1,0,.423-.322t.76-.845l.254.247a5.147,5.147,0,0,1-1.122,1.271,1.805,1.805,0,0,1-1.078.509.589.589,0,0,1-.6-.4,1.743,1.743,0,0,1,.03-1.079l.21-.761a7.076,7.076,0,0,1-.531.718A3.389,3.389,0,0,1,502.466,438.471Zm3.131-7.089q-1.056,0-2.183,1.681a5.878,5.878,0,0,0-1.127,3.268,1.73,1.73,0,0,0,.229.969.735.735,0,0,0,.648.341q.876,0,1.752-1.239a10.383,10.383,0,0,0,1.431-3.268,1.824,1.824,0,0,0-.03-1.228A.75.75,0,0,0,505.6,431.382Z" transform="translate(-285.334 -427.544)" fill="#18162e"/><path d="M516.775,436.749a5.17,5.17,0,0,1-1.43,1.258,3.017,3.017,0,0,1-1.52.464,2.228,2.228,0,0,1-1.714-.684,2.605,2.605,0,0,1-.636-1.846,5.109,5.109,0,0,1,1.411-3.477,4.107,4.107,0,0,1,3.081-1.6,2.013,2.013,0,0,1,1.246.363,1.116,1.116,0,0,1,.483.931.81.81,0,0,1-.209.566.673.673,0,0,1-.517.227.614.614,0,0,1-.524-.227.6.6,0,0,1-.074-.559,1.006,1.006,0,0,1,.179-.36.393.393,0,0,0,.087-.183.105.105,0,0,0-.042-.116,1.584,1.584,0,0,0-.674-.135,2.558,2.558,0,0,0-2.082,1.374,5.513,5.513,0,0,0-.916,3.133,2.318,2.318,0,0,0,.385,1.419,1.263,1.263,0,0,0,1.072.513,1.969,1.969,0,0,0,1-.336,4.758,4.758,0,0,0,1.075-.936Z" transform="translate(-287.874 -427.544)" fill="#18162e"/><path d="M520.45,435.507l1.124-4.1a.541.541,0,0,0-.614-.815l-.3-.008.083-.314,1.257-.217,1.265-.217-1.58,5.782a2.435,2.435,0,0,0-.119.729c.01.163.07.243.179.243a.8.8,0,0,0,.525-.243,5.036,5.036,0,0,0,.68-.841l.262.179A5.27,5.27,0,0,1,522.158,437a1.577,1.577,0,0,1-1.019.455.74.74,0,0,1-.756-.523,1.329,1.329,0,0,1-.075-.509A3.5,3.5,0,0,1,520.45,435.507Zm2.61-8.9a.755.755,0,0,1,.572.251.936.936,0,0,1,0,1.235.775.775,0,0,1-1.143,0,.934.934,0,0,1,0-1.235A.752.752,0,0,1,523.06,426.61Z" transform="translate(-289.992 -426.524)" fill="#18162e"/><path d="M526.332,436.762a2.325,2.325,0,0,1-.677-1.711,4.968,4.968,0,0,1,.056-.566,4.327,4.327,0,0,1,.131-.6,6.129,6.129,0,0,1,1.8-2.845,3.942,3.942,0,0,1,2.631-1.221,2.347,2.347,0,0,1,1.73.662,2.32,2.32,0,0,1,.667,1.719,3.7,3.7,0,0,1-.053.569,5.61,5.61,0,0,1-.127.607,6.112,6.112,0,0,1-1.812,2.837,3.909,3.909,0,0,1-2.613,1.213A2.361,2.361,0,0,1,526.332,436.762Zm3.423-.786a7.1,7.1,0,0,0,1.2-2.482,8.609,8.609,0,0,0,.22-.939,4.7,4.7,0,0,0,.078-.79,1.722,1.722,0,0,0-.3-1.06.988.988,0,0,0-.832-.378,2.082,2.082,0,0,0-1.549.943,7.311,7.311,0,0,0-1.2,2.494q-.135.486-.214.936a4.591,4.591,0,0,0-.078.778,1.678,1.678,0,0,0,.3,1.059,1,1,0,0,0,.836.379A2.066,2.066,0,0,0,529.755,435.976Zm-.417-7.071,1.947-2.1a.519.519,0,0,1,.1-.1.847.847,0,0,1,.5-.206.489.489,0,0,1,.42.176.5.5,0,0,1,.113.315l-.015.135a.875.875,0,0,1-.3.449l-.113.083-2.425,1.527Z" transform="translate(-291.274 -426.497)" fill="#18162e"/><path d="M537.049,432.427a.71.71,0,0,0-.03-.625.818.818,0,0,0-.628-.191l-.313-.008.083-.314,1.28-.217,1.279-.217-.853,3.122a14.177,14.177,0,0,1,1.063-1.49q1.355-1.625,2.351-1.625a.928.928,0,0,1,.906.531,1.916,1.916,0,0,1,.03,1.369l-1.163,4.248a1.126,1.126,0,0,0-.056.449.158.158,0,0,0,.169.15q.127,0,.46-.322a8.465,8.465,0,0,0,.745-.845l.261.179a5.289,5.289,0,0,1-1.081,1.321,1.755,1.755,0,0,1-1.06.527.727.727,0,0,1-.7-.37,1.352,1.352,0,0,1-.026-1L541,432.576a1.012,1.012,0,0,0,.03-.613.338.338,0,0,0-.352-.21q-.7,0-1.759,1.393a11.274,11.274,0,0,0-1.648,3.084l-.555,2.029h-1.265Z" transform="translate(-293.623 -427.542)" fill="#18162e"/></g></g></g></svg>