<svg xmlns="http://www.w3.org/2000/svg" width="45" height="27" viewBox="0 0 45 27"><path d="M24.75,20.25H23.625V14.063a.562.562,0,0,0-.562-.562h-.955a1.685,1.685,0,0,0-.936.283l-1.078.719a.562.562,0,0,0-.156.78l.624.936a.562.562,0,0,0,.78.156l.033-.022v3.9H20.25a.562.562,0,0,0-.562.563v1.125a.562.562,0,0,0,.563.563h4.5a.562.562,0,0,0,.563-.562V20.813A.562.562,0,0,0,24.75,20.25Zm18-15.75H2.25A2.25,2.25,0,0,0,0,6.75v22.5A2.25,2.25,0,0,0,2.25,31.5h40.5A2.25,2.25,0,0,0,45,29.25V6.75A2.25,2.25,0,0,0,42.75,4.5ZM3.375,28.125v-4.5a4.5,4.5,0,0,1,4.5,4.5Zm0-15.75v-4.5h4.5A4.5,4.5,0,0,1,3.375,12.375ZM22.5,25.875c-3.728,0-6.75-3.526-6.75-7.875s3.022-7.875,6.75-7.875S29.25,13.65,29.25,18,26.227,25.875,22.5,25.875Zm19.125,2.25h-4.5a4.5,4.5,0,0,1,4.5-4.5Zm0-15.75a4.5,4.5,0,0,1-4.5-4.5h4.5Z" transform="translate(0 -4.5)" fill="#deb83d"/></svg>