<svg xmlns="http://www.w3.org/2000/svg" width="98.977" height="103.358" viewBox="0 0 98.977 103.358"><g transform="translate(-38.477 -34.509)"><path d="M99.324,209.91H39.859a1.382,1.382,0,1,1,0-2.764H99.324a1.382,1.382,0,1,1,0,2.764Z" transform="translate(0 -77.203)" fill="#2b233a"/><path d="M124.689,103.9a1.382,1.382,0,0,1-.977-2.359l14.462-14.465a1.382,1.382,0,1,1,1.954,1.954l-14.462,14.464a1.377,1.377,0,0,1-.977.406Z" transform="translate(-37.936 -23.325)" fill="#2b233a"/><path d="M149.182,104.884,118.069,73.771l6.159-6.159a6.3,6.3,0,0,0,8.16-9.541L110.68,36.36a6.3,6.3,0,0,0-9.542,8.162l-21.96,21.96a6.3,6.3,0,0,0-8.16,9.541l21.709,21.71a6.3,6.3,0,0,0,9.541-8.161l6.159-6.159,31.114,31.114a6.818,6.818,0,1,0,9.641-9.642ZM103.724,38.315a3.538,3.538,0,0,1,5,0l21.711,21.709a3.538,3.538,0,0,1-5,5l-.286-.287L104.012,43.6l-.287-.287a3.538,3.538,0,0,1,0-5Zm-.69,8.22,19.182,19.182-7.076,7.076L111.3,76.637,100.375,87.558,81.193,68.376ZM99.682,95.778a3.541,3.541,0,0,1-5,0L72.971,74.069a3.538,3.538,0,1,1,5-5l21.709,21.71A3.541,3.541,0,0,1,99.682,95.778Zm47.546,16.794a4.059,4.059,0,0,1-5.733,0L110.382,81.458l2.866-2.867,2.867-2.866,31.113,31.114A4.06,4.06,0,0,1,147.228,112.572Z" transform="translate(-13.725 0)" fill="#2b233a"/><path d="M99.562,181.14H94.019a10.05,10.05,0,0,0-9.936-8.66H55.337a10.05,10.05,0,0,0-9.938,8.66H39.859a1.382,1.382,0,0,0-1.382,1.382v15.663a1.382,1.382,0,0,0,1.382,1.382h59.7a1.382,1.382,0,0,0,1.382-1.382V182.522a1.382,1.382,0,0,0-1.382-1.382Zm-44.224-5.9H84.083a7.29,7.29,0,0,1,7.144,5.9H48.19a7.291,7.291,0,0,1,7.147-5.9ZM98.18,196.8H41.241V183.9H98.18Z" transform="translate(0 -61.7)" fill="#2b233a"/><g transform="translate(46.45 85.98)"><path d="M74,137.784a1.376,1.376,0,0,1-.977-.405l-7.4-7.4a1.382,1.382,0,1,1,1.954-1.954l7.4,7.4A1.382,1.382,0,0,1,74,137.784Z" transform="translate(-58.41 -127.619)" fill="#2b233a"/><path d="M64.751,160.119H54.282a1.382,1.382,0,1,1,0-2.764H64.751a1.382,1.382,0,0,1,0,2.764Z" transform="translate(-52.9 -140.917)" fill="#2b233a"/></g></g></svg>