<svg xmlns="http://www.w3.org/2000/svg" width="105" height="105" viewBox="0 0 105 105"><g transform="translate(-1 -1)"><path d="M103.426,78.115A11.927,11.927,0,0,0,105.8,71V48.986a5.064,5.064,0,0,0-6.971-4.708,5.036,5.036,0,0,0-8.271-2.439,4.924,4.924,0,0,0-5.081-1.009V25.276a5,5,0,0,0-.51-2.176l7.284-7.284,6,6,4.8-19.19-19.19,4.8,6,6L82.57,20.705a5,5,0,0,0-2.176-.51,5.074,5.074,0,0,0-4.769,3.387H59.37L1.293,81.66l2.395,2.395L60.772,26.97H75.313V57.477a5.107,5.107,0,0,1-.517,2.234l-1.421-7.1a10.946,10.946,0,0,0-10.7-8.773A4.292,4.292,0,0,0,59.1,50.51l1.743,2.613a7.587,7.587,0,0,1,1.208,3.243l1.17,9.372a11.586,11.586,0,0,0,1.418,4.312l5.594,11.5v3H66.845v20.323H104.1V84.55h-3.387V81.727ZM98.388,7.282l-1.976,7.907L90.48,9.259Zm2.329,80.655v3.387H70.232V87.938ZM70.232,101.486V94.712h30.484v6.774ZM73.619,84.55V80.774l-5.99-12.305a8.421,8.421,0,0,1-1.05-3.15l-1.17-9.372a10.984,10.984,0,0,0-1.749-4.7L61.917,48.63a.906.906,0,0,1,.754-1.409,7.547,7.547,0,0,1,7.382,6.051l2.178,10.884H76.36l1.446-2.893a8.521,8.521,0,0,0,.894-3.787v-32.2a1.694,1.694,0,1,1,3.387,0v27.1h3.387V45.6a1.694,1.694,0,1,1,3.387,0v6.774h3.387V45.6a1.694,1.694,0,1,1,3.387,0v6.774h3.387V48.986a1.694,1.694,0,0,1,3.387,0V71a8.515,8.515,0,0,1-1.694,5.081L97.329,80.6V84.55Z" transform="translate(0.203 1.127)" fill="#deb83d"/><path d="M23.016,45.032A22.016,22.016,0,1,0,1,23.016,22.042,22.042,0,0,0,23.016,45.032Zm0-40.645A18.629,18.629,0,1,1,4.387,23.016,18.651,18.651,0,0,1,23.016,4.387Z" fill="#deb83d"/><path d="M16.774,28.71a3.391,3.391,0,0,1-3.387-3.387H10a6.768,6.768,0,0,0,5.081,6.534v3.628h3.387V32.1h5.081V25.323a6.781,6.781,0,0,0-6.774-6.774,3.391,3.391,0,0,1-3.387-3.387V11.774h3.387a3.391,3.391,0,0,1,3.387,3.387h3.387a6.768,6.768,0,0,0-5.081-6.534V5H15.081V8.387H10v6.774a6.781,6.781,0,0,0,6.774,6.774,3.391,3.391,0,0,1,3.387,3.387V28.71Z" transform="translate(6.242 2.774)" fill="#deb83d"/><path d="M21,13h3.387v3.387H21Z" transform="translate(13.871 8.323)" fill="#deb83d"/><path d="M5,13H8.387v3.387H5Z" transform="translate(2.774 8.323)" fill="#deb83d"/><path d="M3,71.323H16.548V51H3ZM6.387,54.387h6.774V67.935H6.387Z" transform="translate(1.387 34.677)" fill="#deb83d"/><path d="M15,78.258H28.548V41H15Zm3.387-33.871h6.774V74.871H18.387Z" transform="translate(9.71 27.742)" fill="#deb83d"/><path d="M27,83.806H40.548V33H27Zm3.387-47.419h6.774V80.419H30.387Z" transform="translate(18.032 22.194)" fill="#deb83d"/></g></svg>