<svg xmlns="http://www.w3.org/2000/svg" width="72.887" height="63.168" viewBox="0 0 72.887 63.168"><g transform="translate(-15.995 -48)"><path d="M88.883,86.873V71.081A13.378,13.378,0,0,0,75.52,57.718H43.329l-5.1-6.8A7.324,7.324,0,0,0,32.4,48H26.929a7.3,7.3,0,0,0-7.28,6.938L16.6,60.018a4.131,4.131,0,0,0-.573,1.622,4.07,4.07,0,0,0,4.037,4.582h2.191l2.476,14.86a8.356,8.356,0,0,0,7.132,6.93,8.524,8.524,0,0,0,6.7,7.187l.5,5.022-1.2,9.583a1.215,1.215,0,0,0,1.205,1.365h4.859a1.215,1.215,0,0,0,1.178-.92l2.43-9.718a1.211,1.211,0,0,0,.036-.295V95.376h2.43v4.736l-1.957,9.6a1.215,1.215,0,0,0,1.19,1.458H54.1a1.215,1.215,0,0,0,1.154-.835l3.2-9.718a1.215,1.215,0,0,0,.061-.38V95.376h8.77l.9,3.6-3.533,10.6a1.215,1.215,0,0,0,1.153,1.6h4.859a1.215,1.215,0,0,0,1.11-.721L76.63,99.514a1.216,1.216,0,0,0,.1-.493V97.806l1.123,1.5L75.549,109.69a1.215,1.215,0,0,0,1.185,1.478h4.859a1.215,1.215,0,0,0,1.153-.831L86.391,99.4a1.215,1.215,0,0,0-.015-.811l-1.655-4.413a8.506,8.506,0,0,0,4.162-7.308ZM20.065,63.792a1.64,1.64,0,0,1-1.626-1.854,1.724,1.724,0,0,1,.245-.67L21.543,56.5h9.03a1.215,1.215,0,0,1,0,2.43H29.359a1.215,1.215,0,0,0-1.215,1.215A3.649,3.649,0,0,1,24.5,63.792ZM34.218,86.873A1.215,1.215,0,0,0,33,85.658a5.937,5.937,0,0,1-5.874-4.976L24.718,66.217a6.085,6.085,0,0,0,5.734-4.854h.121a3.644,3.644,0,1,0,0-7.289h-8.35a4.868,4.868,0,0,1,4.705-3.644H32.4a4.882,4.882,0,0,1,3.887,1.944l5.466,7.289a1.215,1.215,0,0,0,.972.486h32.8A10.945,10.945,0,0,1,86.453,71.081V86.873a6.081,6.081,0,0,1-6.074,6.074H75.52a6.081,6.081,0,0,1-6.074-6.074h-2.43a8.477,8.477,0,0,0,2.56,6.074H51.094a8.477,8.477,0,0,0,2.56-6.074h-2.43a6.081,6.081,0,0,1-6.074,6.074H40.292A6.081,6.081,0,0,1,34.218,86.873Zm10.933,13.213-2.163,8.653H40.453l1.044-8.353a1.2,1.2,0,0,0,0-.272l-.474-4.738h4.124Zm10.933-.046-2.861,8.7H50.73l1.684-8.26a1.22,1.22,0,0,0,.024-.243V95.376h3.644Zm13.788,8.7H67.487L70.6,99.4a1.216,1.216,0,0,0,.026-.679l-.837-3.35h4.518v3.386ZM83.95,99.044l-3.231,9.694H78.249l2.1-9.455a1.215,1.215,0,0,0-.214-.992L77.95,95.376h2.43a8.495,8.495,0,0,0,2.1-.262Z" transform="translate(0)" fill="#deb83d"/></g></svg>