<svg xmlns="http://www.w3.org/2000/svg" width="120" height="119.999" viewBox="0 0 120 119.999"><g transform="translate(0 -0.001)"><g transform="translate(8 24.001)"><path d="M118,106a8.008,8.008,0,0,1-8-8,2,2,0,0,0-2-2H44a2,2,0,0,0-2,2,8.008,8.008,0,0,1-8,8,2,2,0,0,0-2,2v16a2,2,0,0,0,2,2,8.008,8.008,0,0,1,8,8,2,2,0,0,0,2,2h64a2,2,0,0,0,2-2,8.008,8.008,0,0,1,8-8,2,2,0,0,0,2-2V108A2,2,0,0,0,118,106Zm-2,16.166A12.033,12.033,0,0,0,106.166,132H45.834A12.033,12.033,0,0,0,36,122.167V109.835A12.033,12.033,0,0,0,45.834,100h60.332A12.033,12.033,0,0,0,116,109.835Z" transform="translate(-32 -96.001)" fill="#deb83d"/></g><g transform="translate(42 34.001)"><path d="M178,136a10,10,0,1,0,10,10A10.011,10.011,0,0,0,178,136Zm0,16a6,6,0,1,1,6-6A6.007,6.007,0,0,1,178,152Z" transform="translate(-168 -136.001)" fill="#deb83d"/></g><g transform="translate(0 0.001)"><g transform="translate(0 0)"><path d="M118,0H18a2,2,0,0,0-2,2V8H10a2,2,0,0,0-2,2v6H2a2,2,0,0,0-2,2V70a2,2,0,0,0,2,2H102a2,2,0,0,0,2-2V64h6a2,2,0,0,0,2-2V56h6a2,2,0,0,0,2-2V2A2,2,0,0,0,118,0ZM100,62v6H4V20h96Zm8-2h-4V18a2,2,0,0,0-2-2H12V12h96Zm8-8h-4V10a2,2,0,0,0-2-2H20V4h96Z" transform="translate(0 -0.001)" fill="#deb83d"/></g></g><g transform="translate(58 77.999)"><path d="M293.2,330.4l-24-18A2,2,0,0,0,266,314v8H234a2,2,0,0,0-2,2v16a2,2,0,0,0,2,2h32v10a2,2,0,0,0,1.152,1.81A1.971,1.971,0,0,0,268,354a2.015,2.015,0,0,0,1.282-.462l24-20a2,2,0,0,0-.082-3.136ZM270,347.726V340a2,2,0,0,0-2-2H236V326h32a2,2,0,0,0,2-2v-6l18.778,14.082Z" transform="translate(-232 -311.995)" fill="#deb83d"/></g><g transform="translate(42 88.001)"><path d="M178,352h-8a2,2,0,0,0-2,2v16a2,2,0,0,0,2,2h8a2,2,0,0,0,2-2V354A2,2,0,0,0,178,352Zm-2,16h-4V356h4Z" transform="translate(-168 -352.001)" fill="#deb83d"/></g><g transform="translate(22 88.001)"><path d="M98,352H90a2,2,0,0,0-2,2v16a2,2,0,0,0,2,2h8a2,2,0,0,0,2-2V354A2,2,0,0,0,98,352Zm-2,16H92V356h4Z" transform="translate(-88 -352.001)" fill="#deb83d"/></g><g transform="translate(0 88.001)"><path d="M10,352H2a2,2,0,0,0-2,2v16a2,2,0,0,0,2,2h8a2,2,0,0,0,2-2V354A2,2,0,0,0,10,352ZM8,368H4V356H8Z" transform="translate(0 -352.001)" fill="#deb83d"/></g></g></svg>