<svg xmlns="http://www.w3.org/2000/svg" width="91.62" height="63.668" viewBox="0 0 91.62 63.668"><g transform="translate(0 -72)"><g transform="translate(0 72)"><g transform="translate(0 0)"><path d="M91.243,89.293,83.479,80.3a1.553,1.553,0,0,0-1.177-.537H60.561a1.55,1.55,0,0,0-.491.079l-8.827,2.943-8.827-2.95a1.552,1.552,0,0,0-.491-.071H37.268A1.553,1.553,0,0,0,38.74,78.7l1.553-4.659A1.553,1.553,0,0,0,38.821,72H1.552A1.553,1.553,0,0,0,.08,74.044L1.632,78.7A1.553,1.553,0,0,0,3.1,79.764h5.57l3.174,21.194a1.553,1.553,0,0,0,1.536,1.323H23.447l9.061,32.255a1.553,1.553,0,0,0,1.5,1.132h6.367a1.553,1.553,0,0,0,1.553-1.553V118.568l33.011-.4.721,2.418a1.554,1.554,0,0,0,.276.53l4.659,5.786v7.216a1.553,1.553,0,0,0,1.553,1.553h6.367a1.553,1.553,0,0,0,1.553-1.5l1.553-43.807A1.552,1.552,0,0,0,91.243,89.293ZM4.224,76.659l-.517-1.553H7.979l.233,1.553ZM32.4,75.106h4.27l-.517,1.553H32.162ZM14.722,99.175l-3.6-24.07H29.254l-.9,5.982L25.651,99.175Zm72.293,33.387H83.7v-6.212a1.562,1.562,0,0,0-.342-.974L78.544,119.4l-.969-3.247a1.553,1.553,0,0,0-1.485-1.11h-.019l-35.716.435a1.553,1.553,0,0,0-1.534,1.553v15.529H35.184l-8.508-30.281h.311a1.553,1.553,0,0,0,1.536-1.323l2.71-18.088H41.675L50.753,85.9a1.552,1.552,0,0,0,.981,0l9.078-3.027H81.59l6.9,7.991Z" transform="translate(0 -72)" fill="#deb83d"/></g></g><g transform="translate(71.843 104.721)"><g transform="translate(0 0)"><rect width="3.106" height="7.682" transform="translate(0 0.546) rotate(-10.131)" fill="#deb83d"/></g></g></g></svg>